<svg xmlns="http://www.w3.org/2000/svg" width="341.515" height="263.927" viewBox="0 0 341.515 263.927">
  <g id="Why_prioritize_Our_Advanced_Plagiarism_Checker_" data-name="Why prioritize Our Advanced Plagiarism Checker?" transform="translate(-1496.596 -5271.524)">
    <g id="Group_4327" data-name="Group 4327" transform="translate(1508.55 5301.409)">
      <g id="Group_4281" data-name="Group 4281" transform="translate(275.077 64.206)">
        <g id="Group_4277" data-name="Group 4277" transform="translate(15.344 0)">
          <path id="Path_4346" data-name="Path 4346" d="M682.385,247.962a1.471,1.471,0,0,1-1.471-1.471v-2.732a1.471,1.471,0,1,1,2.943,0v2.732A1.472,1.472,0,0,1,682.385,247.962Z" transform="translate(-680.914 -242.286)" fill="#141b2c"/>
        </g>
        <g id="Group_4278" data-name="Group 4278" transform="translate(15.344 11.981)">
          <path id="Path_4347" data-name="Path 4347" d="M682.385,372.862a1.471,1.471,0,0,1-1.471-1.471v-5.255a1.471,1.471,0,1,1,2.943,0v5.255A1.471,1.471,0,0,1,682.385,372.862Zm0-14.5a1.471,1.471,0,0,1-1.471-1.471v-5.254a1.471,1.471,0,1,1,2.943,0v5.254A1.471,1.471,0,0,1,682.385,358.358Zm0-14.5a1.471,1.471,0,0,1-1.471-1.471v-5.254a1.471,1.471,0,1,1,2.943,0v5.254A1.471,1.471,0,0,1,682.385,343.855Zm0-14.5a1.471,1.471,0,0,1-1.471-1.471v-5.254a1.471,1.471,0,1,1,2.943,0v5.254A1.471,1.471,0,0,1,682.385,329.352Zm0-14.5a1.471,1.471,0,0,1-1.471-1.472v-5.254a1.471,1.471,0,1,1,2.943,0v5.254A1.472,1.472,0,0,1,682.385,314.849Zm0-14.5a1.471,1.471,0,0,1-1.471-1.471v-5.255a1.471,1.471,0,1,1,2.943,0v5.255A1.472,1.472,0,0,1,682.385,300.345Zm0-14.5a1.471,1.471,0,0,1-1.471-1.471v-5.255a1.471,1.471,0,1,1,2.943,0v5.255A1.472,1.472,0,0,1,682.385,285.842Zm0-14.5a1.471,1.471,0,0,1-1.471-1.471v-5.255a1.471,1.471,0,1,1,2.943,0v5.255A1.472,1.472,0,0,1,682.385,271.339Z" transform="translate(-680.914 -263.141)" fill="#141b2c"/>
        </g>
        <g id="Group_4279" data-name="Group 4279" transform="translate(12.612 127.378)">
          <path id="Path_4348" data-name="Path 4348" d="M680.362,469.468h-2.732a1.471,1.471,0,0,1,0-2.943h1.261v-1.051a1.471,1.471,0,1,1,2.943,0V468A1.471,1.471,0,0,1,680.362,469.468Z" transform="translate(-676.158 -464.003)" fill="#141b2c"/>
        </g>
        <g id="Group_4280" data-name="Group 4280" transform="translate(0 129.9)">
          <path id="Path_4349" data-name="Path 4349" d="M658.2,471.336h-2.523a1.471,1.471,0,1,1,0-2.943H658.2a1.471,1.471,0,1,1,0,2.943Z" transform="translate(-654.205 -468.393)" fill="#141b2c"/>
        </g>
      </g>
      <g id="Group_4287" data-name="Group 4287" transform="translate(28.52 49.493)">
        <g id="Group_4282" data-name="Group 4282">
          <path id="Path_4350" data-name="Path 4350" d="M226.513,222.351a1.471,1.471,0,0,1-1.471-1.471v-2.732a1.471,1.471,0,1,1,2.943,0v2.732A1.471,1.471,0,0,1,226.513,222.351Z" transform="translate(-225.042 -216.676)" fill="#141b2c"/>
        </g>
        <g id="Group_4283" data-name="Group 4283" transform="translate(0 11.981)">
          <path id="Path_4351" data-name="Path 4351" d="M226.513,347.251a1.471,1.471,0,0,1-1.471-1.471v-5.254a1.471,1.471,0,1,1,2.943,0v5.254A1.471,1.471,0,0,1,226.513,347.251Zm0-14.5a1.471,1.471,0,0,1-1.471-1.472v-5.254a1.471,1.471,0,1,1,2.943,0v5.254A1.472,1.472,0,0,1,226.513,332.748Zm0-14.5a1.471,1.471,0,0,1-1.471-1.471v-5.255a1.471,1.471,0,1,1,2.943,0v5.255A1.472,1.472,0,0,1,226.513,318.245Zm0-14.5a1.471,1.471,0,0,1-1.471-1.471v-5.255a1.471,1.471,0,0,1,2.943,0v5.255A1.472,1.472,0,0,1,226.513,303.741Zm0-14.5a1.471,1.471,0,0,1-1.471-1.471v-5.255a1.471,1.471,0,0,1,2.943,0v5.255A1.472,1.472,0,0,1,226.513,289.238Zm0-14.5a1.471,1.471,0,0,1-1.471-1.471v-5.255a1.471,1.471,0,1,1,2.943,0v5.255A1.472,1.472,0,0,1,226.513,274.734Zm0-14.5a1.471,1.471,0,0,1-1.471-1.471V253.5a1.471,1.471,0,1,1,2.943,0v5.255A1.472,1.472,0,0,1,226.513,260.231Zm0-14.5a1.471,1.471,0,0,1-1.471-1.471V239a1.471,1.471,0,0,1,2.943,0v5.255A1.472,1.472,0,0,1,226.513,245.728Z" transform="translate(-225.042 -237.53)" fill="#141b2c"/>
        </g>
        <g id="Group_4284" data-name="Group 4284" transform="translate(0 128.007)">
          <path id="Path_4352" data-name="Path 4352" d="M229.035,444.954h-2.522a1.471,1.471,0,0,1-1.471-1.471v-2.522a1.471,1.471,0,1,1,2.943,0v1.051h1.051a1.471,1.471,0,1,1,0,2.943Z" transform="translate(-225.042 -439.489)" fill="#141b2c"/>
        </g>
        <g id="Group_4285" data-name="Group 4285" transform="translate(8.828 130.53)">
          <path id="Path_4353" data-name="Path 4353" d="M245.242,446.823h-3.363a1.471,1.471,0,0,1,0-2.943h3.363a1.471,1.471,0,1,1,0,2.943Z" transform="translate(-240.408 -443.88)" fill="#141b2c"/>
        </g>
        <g id="Group_4286" data-name="Group 4286" transform="translate(18.287 130.53)">
          <path id="Path_4354" data-name="Path 4354" d="M261.076,446.823h-2.733a1.471,1.471,0,1,1,0-2.943h2.733a1.471,1.471,0,0,1,0,2.943Z" transform="translate(-256.872 -443.88)" fill="#141b2c"/>
        </g>
      </g>
      <g id="Group_4290" data-name="Group 4290" transform="translate(57.527 81.021)">
        <g id="Group_4288" data-name="Group 4288" transform="translate(4.624)">
          <path id="Path_4355" data-name="Path 4355" d="M285.052,283.957a1.471,1.471,0,0,1-1.471-1.471v-9.459a1.471,1.471,0,1,1,2.943,0v9.459A1.471,1.471,0,0,1,285.052,283.957Z" transform="translate(-283.581 -271.556)" fill="#141b2c"/>
        </g>
        <g id="Group_4289" data-name="Group 4289" transform="translate(0 4.834)">
          <path id="Path_4356" data-name="Path 4356" d="M286.462,282.914H277a1.471,1.471,0,0,1,0-2.943h9.459a1.471,1.471,0,1,1,0,2.943Z" transform="translate(-275.532 -279.971)" fill="#141b2c"/>
        </g>
      </g>
      <g id="Group_4293" data-name="Group 4293" transform="translate(185.534 8.084)">
        <g id="Group_4291" data-name="Group 4291" transform="translate(4.625)">
          <path id="Path_4357" data-name="Path 4357" d="M507.866,157a1.471,1.471,0,0,1-1.471-1.471v-9.459a1.471,1.471,0,1,1,2.943,0v9.459A1.472,1.472,0,0,1,507.866,157Z" transform="translate(-506.395 -144.6)" fill="#141b2c"/>
        </g>
        <g id="Group_4292" data-name="Group 4292" transform="translate(0 4.834)">
          <path id="Path_4358" data-name="Path 4358" d="M509.276,155.958h-9.459a1.471,1.471,0,1,1,0-2.943h9.459a1.471,1.471,0,1,1,0,2.943Z" transform="translate(-498.345 -153.015)" fill="#141b2c"/>
        </g>
      </g>
      <g id="Group_4296" data-name="Group 4296" transform="translate(308.078 91.951)">
        <g id="Group_4294" data-name="Group 4294" transform="translate(4.624 0)">
          <path id="Path_4359" data-name="Path 4359" d="M721.167,302.982a1.471,1.471,0,0,1-1.471-1.471v-9.459a1.471,1.471,0,0,1,2.943,0v9.459A1.471,1.471,0,0,1,721.167,302.982Z" transform="translate(-719.696 -290.581)" fill="#141b2c"/>
        </g>
        <g id="Group_4295" data-name="Group 4295" transform="translate(0 4.834)">
          <path id="Path_4360" data-name="Path 4360" d="M722.577,301.939h-9.459a1.471,1.471,0,1,1,0-2.943h9.459a1.471,1.471,0,0,1,0,2.943Z" transform="translate(-711.647 -298.996)" fill="#141b2c"/>
        </g>
      </g>
      <g id="Group_4299" data-name="Group 4299" transform="translate(5.399 96.786)">
        <g id="Group_4297" data-name="Group 4297" transform="translate(4.624 0)">
          <path id="Path_4361" data-name="Path 4361" d="M194.316,311.4a1.471,1.471,0,0,1-1.471-1.471v-9.459a1.471,1.471,0,1,1,2.943,0v9.459A1.471,1.471,0,0,1,194.316,311.4Z" transform="translate(-192.845 -298.996)" fill="#141b2c"/>
        </g>
        <g id="Group_4298" data-name="Group 4298" transform="translate(0 4.834)">
          <path id="Path_4362" data-name="Path 4362" d="M195.726,310.354h-9.459a1.471,1.471,0,0,1,0-2.943h9.459a1.471,1.471,0,1,1,0,2.943Z" transform="translate(-184.796 -307.411)" fill="#141b2c"/>
        </g>
      </g>
      <g id="Group_4300" data-name="Group 4300" transform="translate(0 205.57)">
        <path id="Path_4363" data-name="Path 4363" d="M185.194,509.563a2.081,2.081,0,0,1,2.049-2.13h0a2.072,2.072,0,0,1,2.153,2.015h0a2.054,2.054,0,0,1-2.05,2.118h-.052A2.062,2.062,0,0,1,185.194,509.563Zm-6.224-1.163a2.1,2.1,0,0,1-.057-2.972h0a2.1,2.1,0,0,1,2.972-.055h0a2.1,2.1,0,0,1,.057,2.972h0a2.1,2.1,0,0,1-1.516.643h0A2.083,2.083,0,0,1,178.971,508.4Zm13.61-.321a2.105,2.105,0,0,1-.093-2.973h0a2.1,2.1,0,0,1,2.973-.092h0a2.1,2.1,0,0,1,.092,2.972h0a2.1,2.1,0,0,1-1.532.662h0A2.1,2.1,0,0,1,192.581,508.079ZM175.4,500.2a2.124,2.124,0,0,1,2.077-2.15h0a2.13,2.13,0,0,1,2.127,2.111h0a2.121,2.121,0,0,1-2.075,2.161H177.5A2.144,2.144,0,0,1,175.4,500.2Zm19.1-.472a2.1,2.1,0,0,1,2.022-2.177h0a2.1,2.1,0,0,1,2.177,2.022h0a2.1,2.1,0,0,1-2.022,2.177h0c-.028,0-.053,0-.08,0h0A2.1,2.1,0,0,1,194.5,499.723Zm-15.723-4.937a2.1,2.1,0,0,1-.019-2.972h0a2.1,2.1,0,0,1,2.972-.019h0a2.1,2.1,0,0,1,.019,2.974h0a2.1,2.1,0,0,1-1.5.624h0A2.085,2.085,0,0,1,178.781,494.786Zm13.308-.278a2.1,2.1,0,0,1-.129-2.97h0a2.1,2.1,0,0,1,2.97-.128h0a2.1,2.1,0,0,1,.128,2.968h0a2.09,2.09,0,0,1-1.549.683h0A2.093,2.093,0,0,1,192.089,494.508Zm-7.111-4.059a2.06,2.06,0,0,1,2.125-2.1v0a2.154,2.154,0,0,1,2.079,2.1h0a2.1,2.1,0,0,1-2.1,2.1h0A2.1,2.1,0,0,1,184.978,490.45Z" transform="translate(-175.399 -488.348)" fill="#141b2c"/>
      </g>
      <g id="Group_4301" data-name="Group 4301" transform="translate(115.186 0)">
        <path id="Path_4364" data-name="Path 4364" d="M385.69,151.743a2.08,2.08,0,0,1,2.049-2.129h0a2.071,2.071,0,0,1,2.152,2.015h0a2.053,2.053,0,0,1-2.049,2.118h-.052A2.061,2.061,0,0,1,385.69,151.743Zm-6.226-1.162a2.1,2.1,0,0,1-.055-2.972h0a2.1,2.1,0,0,1,2.972-.055h0a2.1,2.1,0,0,1,.055,2.972h0a2.091,2.091,0,0,1-1.513.643h0A2.1,2.1,0,0,1,379.464,150.581Zm13.612-.322a2.1,2.1,0,0,1-.093-2.972h0a2.1,2.1,0,0,1,2.973-.092h0a2.1,2.1,0,0,1,.092,2.972h0a2.1,2.1,0,0,1-1.532.662h0A2.1,2.1,0,0,1,393.077,150.259Zm-17.182-7.883a2.124,2.124,0,0,1,2.077-2.149h0a2.13,2.13,0,0,1,2.127,2.11h0a2.122,2.122,0,0,1-2.075,2.161H378A2.144,2.144,0,0,1,375.895,142.375Zm19.1-.5a2.086,2.086,0,0,1,2.022-2.162h0a2.082,2.082,0,0,1,2.177,2h0a2.055,2.055,0,0,1-2.022,2.157H397.1A2.074,2.074,0,0,1,395,141.873Zm-15.722-4.907a2.1,2.1,0,0,1-.019-2.972h0a2.1,2.1,0,0,1,2.972-.019h0a2.1,2.1,0,0,1,.019,2.974h0a2.1,2.1,0,0,1-1.5.624h0A2.085,2.085,0,0,1,379.277,136.966Zm13.307-.277h0a2.1,2.1,0,0,1-.128-2.97h0a2.1,2.1,0,0,1,2.97-.128h0a2.1,2.1,0,0,1,.128,2.97h0a2.1,2.1,0,0,1-1.549.681h0A2.1,2.1,0,0,1,392.584,136.689Zm-7.11-4.059a2.06,2.06,0,0,1,2.125-2.1v0a2.154,2.154,0,0,1,2.079,2.1h0a2.1,2.1,0,0,1-2.1,2.1h0A2.1,2.1,0,0,1,385.474,132.63Z" transform="translate(-375.895 -130.528)" fill="#141b2c"/>
      </g>
      <g id="Group_4302" data-name="Group 4302" transform="translate(246.767 83.237)">
        <path id="Path_4365" data-name="Path 4365" d="M614.724,296.627a2.083,2.083,0,0,1,2.049-2.131h0a2.075,2.075,0,0,1,2.152,2.017h0a2.053,2.053,0,0,1-2.049,2.118h-.053A2.061,2.061,0,0,1,614.724,296.627Zm-6.226-1.162h0a2.1,2.1,0,0,1-.055-2.972h0a2.1,2.1,0,0,1,2.972-.055h0a2.1,2.1,0,0,1,.055,2.973h0a2.1,2.1,0,0,1-1.513.643h0A2.094,2.094,0,0,1,608.5,295.465Zm13.612-.322a2.1,2.1,0,0,1-.092-2.972h0a2.1,2.1,0,0,1,2.97-.092h0a2.1,2.1,0,0,1,.094,2.972h0a2.1,2.1,0,0,1-1.532.662h0A2.1,2.1,0,0,1,622.11,295.143Zm-17.181-7.883a2.123,2.123,0,0,1,2.077-2.15h0a2.13,2.13,0,0,1,2.127,2.111h0a2.121,2.121,0,0,1-2.076,2.161h-.025A2.144,2.144,0,0,1,604.929,287.259Zm19.1-.5a2.086,2.086,0,0,1,2.022-2.162h0a2.082,2.082,0,0,1,2.178,2h0a2.056,2.056,0,0,1-2.022,2.157h-.08A2.075,2.075,0,0,1,624.034,286.757Zm-15.725-4.907a2.1,2.1,0,0,1-.017-2.972h0a2.1,2.1,0,0,1,2.972-.019h0a2.1,2.1,0,0,1,.019,2.974h0a2.1,2.1,0,0,1-1.5.624h0A2.094,2.094,0,0,1,608.309,281.85Zm13.31-.277a2.1,2.1,0,0,1-.128-2.97h0a2.1,2.1,0,0,1,2.97-.128h0a2.1,2.1,0,0,1,.129,2.97h0a2.1,2.1,0,0,1-1.549.681h0A2.094,2.094,0,0,1,621.618,281.573Zm-7.134-4.057a2.1,2.1,0,0,1,2.1-2.1h0a2.1,2.1,0,0,1,2.1,2.1h0a2.1,2.1,0,0,1-2.1,2.1h0A2.1,2.1,0,0,1,614.484,277.516Z" transform="translate(-604.929 -275.412)" fill="#141b2c"/>
      </g>
      <g id="Group_4303" data-name="Group 4303" transform="translate(302.469 210.824)">
        <path id="Path_4366" data-name="Path 4366" d="M711.679,518.709a2.08,2.08,0,0,1,2.049-2.129h0a2.073,2.073,0,0,1,2.152,2.015h0a2.053,2.053,0,0,1-2.049,2.118h-.052A2.06,2.06,0,0,1,711.679,518.709Zm-6.226-1.162a2.1,2.1,0,0,1-.055-2.972h0a2.1,2.1,0,0,1,2.972-.055h0a2.1,2.1,0,0,1,.055,2.972h0a2.1,2.1,0,0,1-1.513.643h0A2.093,2.093,0,0,1,705.453,517.547Zm13.612-.322a2.1,2.1,0,0,1-.092-2.972h0a2.1,2.1,0,0,1,2.972-.093h0a2.1,2.1,0,0,1,.092,2.972h0a2.1,2.1,0,0,1-1.532.662h0A2.1,2.1,0,0,1,719.065,517.225Zm-17.181-7.883a2.123,2.123,0,0,1,2.077-2.15h0a2.13,2.13,0,0,1,2.127,2.109h0a2.122,2.122,0,0,1-2.075,2.163h-.027A2.143,2.143,0,0,1,701.884,509.341Zm19.1-.5a2.086,2.086,0,0,1,2.022-2.162h0a2.082,2.082,0,0,1,2.178,2h0a2.055,2.055,0,0,1-2.022,2.154h-.08A2.074,2.074,0,0,1,720.988,508.839Zm-15.723-4.907a2.1,2.1,0,0,1-.019-2.972h0a2.1,2.1,0,0,1,2.973-.019h0a2.1,2.1,0,0,1,.018,2.974h0a2.1,2.1,0,0,1-1.5.625h0A2.085,2.085,0,0,1,705.266,503.932Zm13.307-.278a2.1,2.1,0,0,1-.128-2.97h0a2.1,2.1,0,0,1,2.97-.128h0a2.1,2.1,0,0,1,.128,2.97h0a2.1,2.1,0,0,1-1.549.681h0A2.1,2.1,0,0,1,718.573,503.655Zm-7.111-4.057a2.092,2.092,0,0,1,2.091-2.1h0a2.118,2.118,0,0,1,2.119,2.1h0a2.159,2.159,0,0,1-2.084,2.1h0v0h0S711.463,500.758,711.463,499.6Z" transform="translate(-701.884 -497.494)" fill="#141b2c"/>
      </g>
      <path id="Path_4367" data-name="Path 4367" d="M279.536,319.059H410.681v24.866H279.536Z" transform="translate(-183.676 -136.094)" fill="#32ba7a"/>
      <g id="Group_4328" data-name="Group 4328" transform="translate(94.311 42.556)">
        <g id="Group_4264" data-name="Group 4264" transform="translate(0 0)">
          <g id="Group_4239" data-name="Group 4239">
            <path id="Path_4323" data-name="Path 4323" d="M472.191,371.286H341.03a1.471,1.471,0,0,1-1.471-1.471V219.62a15.068,15.068,0,1,1,24.064,12.1H472.4a1.471,1.471,0,0,1,1.471,1.471.991.991,0,0,1-.21.758V369.814A1.472,1.472,0,0,1,472.191,371.286ZM342.5,368.342H470.719V234.66H354.747a1.471,1.471,0,1,1,0-2.943A12.087,12.087,0,1,0,342.5,219.6Z" transform="translate(-339.559 -204.602)" fill="#141b2c"/>
          </g>
          <g id="Group_4240" data-name="Group 4240" transform="translate(131.269 0.005)">
            <path id="Path_4324" data-name="Path 4324" d="M569.521,234.607a1.471,1.471,0,1,1,0-2.943,12.055,12.055,0,0,0,0-24.11,1.471,1.471,0,1,1,0-2.943,15,15,0,1,1,0,30Z" transform="translate(-568.05 -204.611)" fill="#141b2c"/>
          </g>
          <g id="Group_4241" data-name="Group 4241" transform="translate(13.662 0.21)">
            <path id="Path_4325" data-name="Path 4325" d="M482.519,207.911H364.811a1.471,1.471,0,1,1,0-2.943H482.519a1.471,1.471,0,1,1,0,2.943Z" transform="translate(-363.34 -204.968)" fill="#141b2c"/>
          </g>
          <g id="Group_4263" data-name="Group 4263" transform="translate(21.25 39.142)">
            <g id="Group_4248" data-name="Group 4248">
              <g id="Group_4244" data-name="Group 4244">
                <g id="Group_4242" data-name="Group 4242" transform="translate(4.362 2.166)">
                  <path id="Path_4326" data-name="Path 4326" d="M388.781,286.968h0a1.472,1.472,0,0,1-1.04-.431l-3.17-3.17a1.471,1.471,0,1,1,2.081-2.081l2.129,2.129,6.48-6.48a1.471,1.471,0,1,1,2.081,2.081l-7.521,7.521A1.473,1.473,0,0,1,388.781,286.968Z" transform="translate(-384.14 -276.505)" fill="#141b2c"/>
                </g>
                <g id="Group_4243" data-name="Group 4243">
                  <path id="Path_4327" data-name="Path 4327" d="M385.836,291.311a9.289,9.289,0,0,1,0-18.577,1.471,1.471,0,0,1,0,2.943,6.346,6.346,0,1,0,6.346,6.346,1.471,1.471,0,0,1,2.943,0A9.3,9.3,0,0,1,385.836,291.311Z" transform="translate(-376.547 -272.734)" fill="#141b2c"/>
                </g>
              </g>
              <g id="Group_4247" data-name="Group 4247" transform="translate(23.311 4.158)">
                <g id="Group_4245" data-name="Group 4245">
                  <path id="Path_4328" data-name="Path 4328" d="M458.741,282.914H418.594a1.471,1.471,0,0,1,0-2.943h40.147a1.471,1.471,0,1,1,0,2.943Z" transform="translate(-417.123 -279.971)" fill="#141b2c"/>
                </g>
                <g id="Group_4246" data-name="Group 4246" transform="translate(0 7.567)">
                  <path id="Path_4329" data-name="Path 4329" d="M484.175,296.085h-65.58a1.471,1.471,0,0,1,0-2.943h65.58a1.471,1.471,0,0,1,0,2.943Z" transform="translate(-417.123 -293.142)" fill="#141b2c"/>
                </g>
              </g>
            </g>
            <g id="Group_4255" data-name="Group 4255" transform="translate(0 32.133)">
              <g id="Group_4251" data-name="Group 4251">
                <g id="Group_4249" data-name="Group 4249" transform="translate(4.362 2.167)">
                  <path id="Path_4330" data-name="Path 4330" d="M388.781,342.9a1.464,1.464,0,0,1-1.04-.431l-3.17-3.17a1.471,1.471,0,1,1,2.081-2.081l2.129,2.13,6.48-6.481a1.471,1.471,0,1,1,2.081,2.081l-7.521,7.521A1.467,1.467,0,0,1,388.781,342.9Z" transform="translate(-384.14 -332.437)" fill="#141b2c"/>
                </g>
                <g id="Group_4250" data-name="Group 4250">
                  <path id="Path_4331" data-name="Path 4331" d="M385.836,347.243a9.289,9.289,0,0,1,0-18.577,1.471,1.471,0,0,1,0,2.943,6.346,6.346,0,1,0,6.346,6.346,1.471,1.471,0,0,1,2.943,0A9.3,9.3,0,0,1,385.836,347.243Z" transform="translate(-376.547 -328.666)" fill="#141b2c"/>
                </g>
              </g>
              <g id="Group_4254" data-name="Group 4254" transform="translate(23.311 4.184)">
                <g id="Group_4252" data-name="Group 4252">
                  <path id="Path_4332" data-name="Path 4332" d="M458.741,338.892H418.594a1.471,1.471,0,0,1,0-2.943h40.147a1.471,1.471,0,1,1,0,2.943Z" transform="translate(-417.123 -335.949)" fill="#141b2c"/>
                </g>
                <g id="Group_4253" data-name="Group 4253" transform="translate(0 7.567)">
                  <path id="Path_4333" data-name="Path 4333" d="M484.175,352.063h-65.58a1.471,1.471,0,0,1,0-2.943h65.58a1.471,1.471,0,0,1,0,2.943Z" transform="translate(-417.123 -349.12)" fill="#141b2c"/>
                </g>
              </g>
            </g>
            <g id="Group_4262" data-name="Group 4262" transform="translate(0 64.267)">
              <g id="Group_4258" data-name="Group 4258">
                <g id="Group_4256" data-name="Group 4256" transform="translate(4.362 2.167)">
                  <path id="Path_4334" data-name="Path 4334" d="M388.781,398.833a1.467,1.467,0,0,1-1.04-.431l-3.17-3.17a1.471,1.471,0,1,1,2.081-2.081l2.129,2.129,6.48-6.48a1.471,1.471,0,1,1,2.081,2.081l-7.521,7.521A1.467,1.467,0,0,1,388.781,398.833Z" transform="translate(-384.14 -388.37)" fill="#141b2c"/>
                </g>
                <g id="Group_4257" data-name="Group 4257">
                  <path id="Path_4335" data-name="Path 4335" d="M385.836,403.176a9.289,9.289,0,0,1,0-18.578,1.471,1.471,0,0,1,0,2.943,6.346,6.346,0,1,0,6.346,6.346,1.471,1.471,0,1,1,2.943,0A9.3,9.3,0,0,1,385.836,403.176Z" transform="translate(-376.547 -384.598)" fill="#141b2c"/>
                </g>
              </g>
              <g id="Group_4261" data-name="Group 4261" transform="translate(23.311 4.211)">
                <g id="Group_4259" data-name="Group 4259">
                  <path id="Path_4336" data-name="Path 4336" d="M458.741,394.87H418.594a1.471,1.471,0,0,1,0-2.943h40.147a1.471,1.471,0,1,1,0,2.943Z" transform="translate(-417.123 -391.927)" fill="#141b2c"/>
                </g>
                <g id="Group_4260" data-name="Group 4260" transform="translate(0 7.567)">
                  <path id="Path_4337" data-name="Path 4337" d="M484.175,408.041h-65.58a1.471,1.471,0,0,1,0-2.943h65.58a1.471,1.471,0,0,1,0,2.943Z" transform="translate(-417.123 -405.098)" fill="#141b2c"/>
                </g>
              </g>
            </g>
          </g>
        </g>
        <g id="Group_4265" data-name="Group 4265" transform="translate(1.471 138.517)">
          <path id="Path_4338" data-name="Path 4338" d="M473.281,448.652H343.591a1.471,1.471,0,1,1,0-2.943H473.281a1.471,1.471,0,1,1,0,2.943Z" transform="translate(-342.12 -445.709)" fill="#141b2c"/>
        </g>
        <g id="Group_4266" data-name="Group 4266" transform="translate(6.515 145.244)">
          <path id="Path_4339" data-name="Path 4339" d="M376.334,471.079a1.472,1.472,0,0,1-1.472,1.472h-22.49a1.472,1.472,0,0,1-1.472-1.472V458.888a1.472,1.472,0,0,1,1.472-1.471h22.49a1.472,1.472,0,0,1,1.472,1.471Zm-22.491-1.471h19.548V460.36H353.843Z" transform="translate(-350.9 -457.417)" fill="#141b2c"/>
        </g>
        <g id="Group_4269" data-name="Group 4269" transform="translate(39.096 146.294)">
          <g id="Group_4267" data-name="Group 4267">
            <path id="Path_4340" data-name="Path 4340" d="M477.394,462.189H409.081a1.472,1.472,0,0,1,0-2.943h68.313a1.472,1.472,0,0,1,0,2.943Z" transform="translate(-407.61 -459.246)" fill="#141b2c"/>
          </g>
          <g id="Group_4268" data-name="Group 4268" transform="translate(0 9.669)">
            <path id="Path_4341" data-name="Path 4341" d="M491.9,479.019H409.081a1.471,1.471,0,0,1,0-2.943H491.9a1.471,1.471,0,0,1,0,2.943Z" transform="translate(-407.61 -476.076)" fill="#141b2c"/>
          </g>
        </g>
      </g>
    </g>
    <g id="Group_4336" data-name="Group 4336" transform="translate(1752.813 5289.552)">
      <g id="Color" transform="translate(1.038 1.038)">
        <g id="Group_4329" data-name="Group 4329" transform="translate(0)">
          <path id="Path_4368" data-name="Path 4368" d="M1408.373,452.5a25.369,25.369,0,1,0,35.877,0A25.369,25.369,0,0,0,1408.373,452.5Zm31.282,31.282a18.871,18.871,0,1,1,0-26.687A18.871,18.871,0,0,1,1439.655,483.785Z" transform="translate(-1400.943 -445.073)" fill="#0868f4"/>
        </g>
      </g>
      <g id="BRANDING" transform="translate(0)">
        <g id="Group_4335" data-name="Group 4335">
          <g id="Group_4330" data-name="Group 4330" transform="translate(6.486 6.485)">
            <path id="Path_4369" data-name="Path 4369" d="M1457.16,521.2a19.912,19.912,0,1,1,14.087-5.826A19.86,19.86,0,0,1,1457.16,521.2Zm0-37.732a17.82,17.82,0,1,0,12.6,5.219A17.7,17.7,0,0,0,1457.16,483.47Z" transform="translate(-1437.239 -481.369)" fill="#1e243a"/>
          </g>
          <g id="Group_4331" data-name="Group 4331">
            <path id="Path_4370" data-name="Path 4370" d="M1420.432,490.97a26.407,26.407,0,1,1,18.681-7.726A26.336,26.336,0,0,1,1420.432,490.97Zm0-50.714a24.307,24.307,0,1,0,17.2,7.111A24.243,24.243,0,0,0,1420.432,440.256Z" transform="translate(-1394.025 -438.156)" fill="#1e243a"/>
          </g>
          <g id="Group_4332" data-name="Group 4332" transform="translate(43.172 43.289)">
            <path id="Path_4371" data-name="Path 4371" d="M1691.32,737.283a1.047,1.047,0,0,1-.743-.308l-8.583-8.583a1.051,1.051,0,0,1,1.486-1.486l8.583,8.583a1.051,1.051,0,0,1-.743,1.794Z" transform="translate(-1681.687 -726.598)" fill="#1e243a"/>
          </g>
          <path id="Path_4380" data-name="Path 4380" d="M60.475,46.319,45.691,60.246,48.353,63.4l3.567-3.156L74.4,83.014l2.611,1.17,4.378-.542,1.777-1.618,1.043-3.182V75.276L67.938,59.095l-7.463-7.4,3.573-2.97Z" fill="#fff"/>
          <g id="Group_4333" data-name="Group 4333" transform="translate(44.472 44.502)">
            <path id="Path_4372" data-name="Path 4372" d="M1694.634,754.9a1.046,1.046,0,0,1-.743-.308l-3.233-3.233a1.05,1.05,0,0,1,0-1.486l14.888-14.888a1.051,1.051,0,0,1,1.486,0l3.233,3.233a1.051,1.051,0,0,1,0,1.486l-4.161,4.161a1.05,1.05,0,0,1-1.486-1.486l3.418-3.418-1.747-1.747-13.4,13.4,1.747,1.747,6.014-6.014a1.051,1.051,0,0,1,1.486,1.486l-6.757,6.757A1.047,1.047,0,0,1,1694.634,754.9Z" transform="translate(-1690.35 -734.68)" fill="#1e243a"/>
          </g>
          <g id="Group_4334" data-name="Group 4334" transform="translate(50.849 50.879)">
            <path id="Path_4373" data-name="Path 4373" d="M1760.154,811.616a7.085,7.085,0,0,1-5.044-2.089l-21.965-21.965a1.051,1.051,0,0,1,1.486-1.486l21.965,21.965a5.032,5.032,0,0,0,7.116-7.116l-21.965-21.965a1.051,1.051,0,0,1,1.486-1.486l21.965,21.965a7.133,7.133,0,0,1-5.044,12.177Z" transform="translate(-1732.837 -777.167)" fill="#1e243a"/>
          </g>
        </g>
      </g>
    </g>
    <g id="Group_4345" data-name="Group 4345" transform="translate(1496.596 5289.552)">
      <g id="Group_4337" data-name="Group 4337" transform="translate(33.916 1.141)">
        <path id="Path_4374" data-name="Path 4374" d="M3868.056-1332.955l0-10.518-8.092,0a22.469,22.469,0,0,0-2.468-6.719l5.5-5.5-7.417-7.417-5.156,5.156a23.347,23.347,0,0,0-7.016-3.238l.019-6.934h-4.538v15.227a13.957,13.957,0,0,1,12.447,13.872,13.96,13.96,0,0,1-12.447,13.876v16.828l4.537,0-.022-8.362a22.25,22.25,0,0,0,6.093-2.618l5.974,5.976,7.529-7.53-5.977-5.976a22.4,22.4,0,0,0,2.631-6.137Z" transform="translate(-3838.882 1368.118)" fill="#32ba7a"/>
      </g>
      <g id="Group_4340" data-name="Group 4340" transform="translate(30.874 0)">
        <g id="Group_4338" data-name="Group 4338" transform="translate(3.042 15.222)">
          <path id="Path_4375" data-name="Path 4375" d="M3852.437-1260.511a15.063,15.063,0,0,1-13.466,15.011c-.03,0-.061,0-.091,0v-2.292a12.783,12.783,0,0,0,11.276-12.724,12.894,12.894,0,0,0-11.276-12.724v-2.295a15.039,15.039,0,0,1,9.562,4.788A15.05,15.05,0,0,1,3852.437-1260.511Z" transform="translate(-3838.88 1275.53)" fill="#1e243a"/>
        </g>
        <g id="Group_4339" data-name="Group 4339" transform="translate(0 0)">
          <path id="Path_4376" data-name="Path 4376" d="M3852.237-1339.324a1.226,1.226,0,0,1-.334.843,1.176,1.176,0,0,1-.806.37h0l-7.547-.035a23.447,23.447,0,0,1-2.059,4.8l5.349,5.341a1.131,1.131,0,0,1,.334.8,1.135,1.135,0,0,1-.334.8l-7.53,7.528a1.141,1.141,0,0,1-1.614,0l-5.347-5.349a23.2,23.2,0,0,1-4.775,2.044l.014,7.5a1.212,1.212,0,0,1-.335.838,1.164,1.164,0,0,1-.806.364h0l-7.563-.031v-2.251l6.421-.029-.012-7.233a1.149,1.149,0,0,1,.846-1.112,21.054,21.054,0,0,0,5.788-2.488,1.139,1.139,0,0,1,1.41.16l5.169,5.168,5.917-5.918-5.17-5.168a1.143,1.143,0,0,1-.161-1.41,21.168,21.168,0,0,0,2.5-5.793,1.111,1.111,0,0,1,1.1-.815h0l7.267-.03v-8.287l-6.95-.047a1.182,1.182,0,0,1-.724-.242,1.062,1.062,0,0,1-.4-.64,21.147,21.147,0,0,0-2.343-6.365,1.127,1.127,0,0,1,.187-1.358l4.691-4.687-5.8-5.8-4.351,4.351a1.139,1.139,0,0,1-1.448.137,22.273,22.273,0,0,0-6.671-3.078,1.141,1.141,0,0,1-.844-1.1l0-5.793h-6.424v-2.281l7.565,0a1.142,1.142,0,0,1,.808.335,1.148,1.148,0,0,1,.333.808l0,6.076a24.639,24.639,0,0,1,5.723,2.634l4.5-4.5a1.141,1.141,0,0,1,1.614,0l7.417,7.417a1.139,1.139,0,0,1,0,1.612l-4.9,4.9a22.974,22.974,0,0,1,1.98,5.34l7.173-.036a1.016,1.016,0,0,1,.437.1,1.292,1.292,0,0,1,.369.263,1.175,1.175,0,0,1,.334.823Z" transform="translate(-3818.88 1375.62)" fill="#1e243a"/>
        </g>
      </g>
      <g id="Group_4341" data-name="Group 4341" transform="translate(1.141 1.141)">
        <path id="Path_4377" data-name="Path 4377" d="M3623.384-1332.955l0-10.518,8.092,0a22.463,22.463,0,0,1,2.468-6.719l-5.5-5.5,7.417-7.417,5.156,5.156a23.348,23.348,0,0,1,7.016-3.238l-.019-6.934h4.539v15.227a13.957,13.957,0,0,0-12.448,13.872,13.96,13.96,0,0,0,12.448,13.876v16.828l-4.538,0,.022-8.362a22.255,22.255,0,0,1-6.093-2.618l-5.974,5.976-7.529-7.53,5.976-5.976a22.4,22.4,0,0,1-2.631-6.137Z" transform="translate(-3623.384 1368.118)" fill="#32ba7a"/>
      </g>
      <g id="Group_4344" data-name="Group 4344" transform="translate(0 0)">
        <g id="Group_4342" data-name="Group 4342" transform="translate(16.758 15.222)">
          <path id="Path_4378" data-name="Path 4378" d="M3726.07-1260.511a15.063,15.063,0,0,0,13.466,15.011c.03,0,.061,0,.091,0v-2.292a12.783,12.783,0,0,1-11.276-12.724,12.894,12.894,0,0,1,11.276-12.724v-2.295a15.04,15.04,0,0,0-9.562,4.788A15.05,15.05,0,0,0,3726.07-1260.511Z" transform="translate(-3726.07 1275.53)" fill="#1e243a"/>
        </g>
        <g id="Group_4343" data-name="Group 4343" transform="translate(0 0)">
          <path id="Path_4379" data-name="Path 4379" d="M3615.88-1339.324a1.225,1.225,0,0,0,.334.843,1.176,1.176,0,0,0,.806.37h0l7.546-.035a23.475,23.475,0,0,0,2.06,4.8l-5.349,5.341a1.132,1.132,0,0,0-.334.8,1.136,1.136,0,0,0,.334.8l7.53,7.528a1.141,1.141,0,0,0,1.614,0l5.347-5.349a23.207,23.207,0,0,0,4.776,2.044l-.014,7.5a1.211,1.211,0,0,0,.335.838,1.164,1.164,0,0,0,.806.364h0l7.564-.031v-2.251l-6.421-.029.012-7.233a1.149,1.149,0,0,0-.846-1.112,21.062,21.062,0,0,1-5.789-2.488,1.139,1.139,0,0,0-1.41.16l-5.169,5.168-5.916-5.918,5.169-5.168a1.144,1.144,0,0,0,.161-1.41,21.16,21.16,0,0,1-2.5-5.793,1.112,1.112,0,0,0-1.1-.815h0l-7.267-.03v-8.287l6.95-.047a1.182,1.182,0,0,0,.724-.242,1.063,1.063,0,0,0,.4-.64,21.139,21.139,0,0,1,2.342-6.365,1.127,1.127,0,0,0-.187-1.358l-4.69-4.687,5.8-5.8,4.351,4.351a1.139,1.139,0,0,0,1.448.137,22.271,22.271,0,0,1,6.671-3.078,1.142,1.142,0,0,0,.844-1.1l0-5.793h6.425v-2.281l-7.565,0a1.142,1.142,0,0,0-.808.335,1.147,1.147,0,0,0-.333.808l0,6.076a24.628,24.628,0,0,0-5.723,2.634l-4.5-4.5a1.141,1.141,0,0,0-1.614,0l-7.418,7.417a1.14,1.14,0,0,0,0,1.612l4.9,4.9a22.975,22.975,0,0,0-1.98,5.34l-7.173-.036a1.013,1.013,0,0,0-.436.1,1.291,1.291,0,0,0-.37.263,1.175,1.175,0,0,0-.334.823Z" transform="translate(-3615.88 1375.62)" fill="#1e243a"/>
        </g>
      </g>
      <rect id="Rectangle_946" data-name="Rectangle 946" width="6.692" height="57.582" transform="translate(29.201 2.282)" fill="#32ba7a"/>
      <circle id="Ellipse_341" data-name="Ellipse 341" cx="15.285" cy="15.285" r="15.285" transform="translate(16.882 14.999)" fill="#1e243a"/>
      <circle id="Ellipse_342" data-name="Ellipse 342" cx="12.758" cy="12.758" r="12.758" transform="translate(19.408 17.525)" fill="#fff"/>
    </g>
    <g id="Group_4346" data-name="Group 4346" transform="matrix(0.921, 0.391, -0.391, 0.921, 1571.2, 5271.524)">
      <g id="Group_4337-2" data-name="Group 4337" transform="translate(22.519 0.758)">
        <path id="Path_4374-2" data-name="Path 4374" d="M19.37,23.347V16.364l-5.373,0a14.917,14.917,0,0,0-1.639-4.461l3.65-3.65L11.083,3.33,7.66,6.754A15.5,15.5,0,0,0,3,4.6L3.013,0H0v10.11a9.267,9.267,0,0,1,8.264,9.211A9.269,9.269,0,0,1,0,28.535V39.708H3.013L3,34.157a14.777,14.777,0,0,0,4.046-1.738l3.966,3.968,5-5L12.04,27.42a14.865,14.865,0,0,0,1.747-4.075Z" fill="#32ba7a"/>
      </g>
      <g id="Group_4340-2" data-name="Group 4340" transform="translate(20.499 0)">
        <g id="Group_4338-2" data-name="Group 4338" transform="translate(2.02 10.107)">
          <path id="Path_4375-2" data-name="Path 4375" d="M9,9.972A10,10,0,0,1,.061,19.939l-.061,0V18.42A8.488,8.488,0,0,0,7.487,9.972,8.561,8.561,0,0,0,0,1.524V0A9.986,9.986,0,0,1,6.349,3.179,9.992,9.992,0,0,1,9,9.972Z" transform="translate(0 0)" fill="#1e243a"/>
        </g>
        <g id="Group_4339-2" data-name="Group 4339" transform="translate(0)">
          <path id="Path_4376-2" data-name="Path 4376" d="M22.149,24.1a.814.814,0,0,1-.222.559.78.78,0,0,1-.535.245h0l-5.011-.023a15.584,15.584,0,0,1-1.367,3.187l3.552,3.547a.752.752,0,0,1,0,1.067l-5,5a.757.757,0,0,1-1.071,0L8.942,34.129a15.4,15.4,0,0,1-3.17,1.357l.009,4.979a.8.8,0,0,1-.222.556.773.773,0,0,1-.535.241h0L0,41.243V39.749l4.264-.019-.008-4.8a.763.763,0,0,1,.562-.738A13.983,13.983,0,0,0,8.66,32.536a.756.756,0,0,1,.936.106l3.433,3.431,3.928-3.929-3.433-3.432a.758.758,0,0,1-.107-.936,14.063,14.063,0,0,0,1.657-3.846.738.738,0,0,1,.732-.541h0l4.825-.02v-5.5l-4.615-.031a.786.786,0,0,1-.481-.161.707.707,0,0,1-.262-.425,14.028,14.028,0,0,0-1.555-4.226.748.748,0,0,1,.124-.9L16.957,9.01,13.1,5.157,10.215,8.046a.757.757,0,0,1-.962.091A14.785,14.785,0,0,0,4.824,6.093a.758.758,0,0,1-.56-.732l0-3.846H0V0H5.023A.757.757,0,0,1,5.78.758l0,4.034a16.368,16.368,0,0,1,3.8,1.749l2.989-2.989a.757.757,0,0,1,1.071,0l4.925,4.925a.756.756,0,0,1,0,1.07L15.312,12.8a15.3,15.3,0,0,1,1.315,3.546l4.762-.024a.674.674,0,0,1,.29.069.86.86,0,0,1,.245.175.779.779,0,0,1,.222.546Z" fill="#1e243a"/>
        </g>
      </g>
      <g id="Group_4341-2" data-name="Group 4341" transform="translate(0.758 0.758)">
        <path id="Path_4377-2" data-name="Path 4377" d="M0,23.347V16.364l5.372,0a14.918,14.918,0,0,1,1.639-4.461l-3.65-3.65L8.288,3.33l3.424,3.424A15.5,15.5,0,0,1,16.37,4.6L16.357,0h3.014v10.11a9.266,9.266,0,0,0,0,18.424V39.708H16.358l.015-5.552a14.777,14.777,0,0,1-4.045-1.738L8.361,36.387l-5-5L7.33,27.42a14.879,14.879,0,0,1-1.747-4.075Z" fill="#32ba7a"/>
      </g>
      <g id="Group_4344-2" data-name="Group 4344" transform="translate(0 0)">
        <g id="Group_4342-2" data-name="Group 4342" transform="translate(11.127 10.107)">
          <path id="Path_4378-2" data-name="Path 4378" d="M0,9.972a10,10,0,0,0,8.941,9.967l.06,0V18.42a8.51,8.51,0,0,1,0-16.9V0A10.024,10.024,0,0,0,0,9.972Z" transform="translate(0 0)" fill="#1e243a"/>
        </g>
        <g id="Group_4343-2" data-name="Group 4343" transform="translate(0 0)">
          <path id="Path_4379-2" data-name="Path 4379" d="M0,24.1a.814.814,0,0,0,.222.559.78.78,0,0,0,.535.245h0l5.011-.023a15.585,15.585,0,0,0,1.368,3.187L3.585,31.614a.752.752,0,0,0,0,1.067l5,5a.758.758,0,0,0,1.072,0l3.55-3.551a15.4,15.4,0,0,0,3.171,1.357l-.009,4.979a.8.8,0,0,0,.222.556.773.773,0,0,0,.535.241h0l5.022-.02V39.749l-4.264-.019.008-4.8a.763.763,0,0,0-.562-.738,13.979,13.979,0,0,1-3.843-1.652.757.757,0,0,0-.936.106L9.12,36.074,5.191,32.145l3.433-3.432a.759.759,0,0,0,.107-.936,14.056,14.056,0,0,1-1.657-3.846.738.738,0,0,0-.732-.541h0l-4.825-.02v-5.5l4.615-.031a.783.783,0,0,0,.48-.161.7.7,0,0,0,.263-.425A14.041,14.041,0,0,1,8.43,13.024a.748.748,0,0,0-.124-.9L5.191,9.01,9.045,5.157l2.889,2.889a.756.756,0,0,0,.961.091,14.788,14.788,0,0,1,4.429-2.044.758.758,0,0,0,.561-.732l0-3.846h4.265V0H17.126a.756.756,0,0,0-.757.758l0,4.034a16.355,16.355,0,0,0-3.8,1.749L9.581,3.552a.757.757,0,0,0-1.071,0L3.585,8.477a.757.757,0,0,0,0,1.07L6.837,12.8a15.236,15.236,0,0,0-1.315,3.546L.759,16.321a.674.674,0,0,0-.29.069.857.857,0,0,0-.245.175A.78.78,0,0,0,0,17.11Z" fill="#1e243a"/>
        </g>
      </g>
      <rect id="Rectangle_946-2" data-name="Rectangle 946" width="4.443" height="38.233" transform="translate(19.389 1.516)" fill="#32ba7a"/>
      <circle id="Ellipse_341-2" data-name="Ellipse 341" cx="10.149" cy="10.149" r="10.149" transform="translate(11.21 9.959)" fill="#1e243a"/>
      <circle id="Ellipse_342-2" data-name="Ellipse 342" cx="8.471" cy="8.471" r="8.471" transform="translate(12.887 11.636)" fill="#fff"/>
    </g>
  </g>
</svg>
