<svg xmlns="http://www.w3.org/2000/svg" width="293.256" height="244.076" viewBox="0 0 293.256 244.076">
  <g id="Why_Originality_Uniqueness_of_Content_Matters_" data-name="Why Originality &amp; Uniqueness of Content Matters?" transform="translate(-10301.875 3713.824)">
    <g id="CONTRACT" transform="translate(10287.719 -3713.824)">
      <g id="Group_4088" data-name="Group 4088" transform="translate(24.714 49.746)">
        <path id="Path_4269" data-name="Path 4269" d="M10419.412-3517.88c-1.653-2.273-5.479-2.451-7.752-4.105-2.251-1.637-3.594-5.231-6.3-6.109-2.609-.847-5.8,1.243-8.687,1.243s-6.077-2.09-8.685-1.243c-2.7.878-4.047,4.471-6.3,6.109-2.272,1.654-6.1,1.833-7.754,4.105-1.637,2.25-.635,5.937-1.513,8.64-.847,2.608-3.853,4.989-3.853,7.879s3.006,5.271,3.853,7.879c.878,2.7-.124,6.39,1.513,8.64,1.654,2.272,5.481,2.451,7.754,4.1,2.25,1.638,3.594,5.231,6.3,6.109,2.607.847,5.795-1.243,8.685-1.243s6.077,2.09,8.687,1.243c2.7-.878,4.046-4.471,6.3-6.109,2.272-1.654,6.1-1.832,7.752-4.1,1.639-2.25.635-5.937,1.514-8.64.848-2.608,3.852-4.989,3.852-7.879s-3-5.271-3.852-7.879C10420.047-3511.943,10421.051-3515.63,10419.412-3517.88Zm-22.735,33.6a17.082,17.082,0,0,1-17.081-17.082,17.082,17.082,0,0,1,17.081-17.082,17.082,17.082,0,0,1,17.082,17.082A17.081,17.081,0,0,1,10396.677-3484.28Z" transform="translate(-10368.576 3528.295)" fill="#0a70f1"/>
      </g>
      <path id="Path_4265" data-name="Path 4265" d="M10886.872-3139.463v-10.9l2.564-.641,74.168.55,15.566,14.467-.734,98.341-1.83,1.832h-10.072l.039,7.63-.506,3.662-3.908.977-7.486-.086-.775,9.975-.914,2.015H10864.9l-2.014-1.1V-3125l2.746-1.282,4.395-.183,4.945.183-.064-8.989.818-2.426,1.809-1.038Z" transform="translate(-10757.554 3254.07)" fill="#fff"/>
      <g id="Group_4078" data-name="Group 4078" transform="translate(224.14 0)">
        <g id="Group_4077" data-name="Group 4077">
          <g id="Group_4076" data-name="Group 4076">
            <circle id="Ellipse_340" data-name="Ellipse 340" cx="28.218" cy="28.218" r="28.218" transform="translate(0 39.906) rotate(-45)" fill="#32ba7a"/>
          </g>
        </g>
      </g>
      <g id="Group_4081" data-name="Group 4081" transform="translate(234.455 10.315)">
        <g id="Group_4080" data-name="Group 4080">
          <g id="Group_4079" data-name="Group 4079">
            <path id="Path_4266" data-name="Path 4266" d="M11597.576-3598.318a29.626,29.626,0,0,1-29.592-29.591,29.625,29.625,0,0,1,29.592-29.591,29.625,29.625,0,0,1,29.59,29.591A29.625,29.625,0,0,1,11597.576-3598.318Zm0-56.435a26.875,26.875,0,0,0-26.846,26.844,26.875,26.875,0,0,0,26.846,26.844,26.875,26.875,0,0,0,26.844-26.844A26.875,26.875,0,0,0,11597.576-3654.753Z" transform="translate(-11567.984 3657.5)" fill="#1e243a"/>
          </g>
        </g>
      </g>
      <g id="Group_4084" data-name="Group 4084" transform="translate(256.822 10.315)">
        <g id="Group_4083" data-name="Group 4083">
          <g id="Group_4082" data-name="Group 4082">
            <path id="Path_4267" data-name="Path 4267" d="M11702.86-3596.373a30.371,30.371,0,0,1-11.9-2.4,1.374,1.374,0,0,1-.73-1.8,1.375,1.375,0,0,1,1.8-.73,27.633,27.633,0,0,0,10.826,2.186,27.849,27.849,0,0,0,27.818-27.817,27.849,27.849,0,0,0-27.818-27.817c-.832,0-1.674.037-2.5.111a1.374,1.374,0,0,1-1.49-1.247,1.372,1.372,0,0,1,1.246-1.49c.906-.081,1.832-.122,2.744-.122a30.6,30.6,0,0,1,30.566,30.564A30.6,30.6,0,0,1,11702.86-3596.373Z" transform="translate(-11690.125 3657.5)" fill="#1e243a"/>
          </g>
        </g>
      </g>
      <g id="Group_4087" data-name="Group 4087" transform="translate(247.2 26.022)">
        <g id="Group_4085" data-name="Group 4085" transform="translate(0 10.05)">
          <path id="Path_4268" data-name="Path 4268" d="M11651.65-3502.781h0a2.383,2.383,0,0,1-3.344.238l-10.145-10.144a2.383,2.383,0,0,1,.238-3.344h0a2.383,2.383,0,0,1,3.344-.238l10.145,10.144A2.384,2.384,0,0,1,11651.65-3502.781Z" transform="translate(-11637.583 3516.849)" fill="#fff"/>
        </g>
        <g id="Group_4086" data-name="Group 4086" transform="translate(8.814 0)">
          <rect id="Rectangle_945" data-name="Rectangle 945" width="31.406" height="5.065" rx="2.533" transform="translate(0 22.207) rotate(-45)" fill="#fff"/>
        </g>
      </g>
      <g id="Group_4093" data-name="Group 4093" transform="translate(14.156 48.766)">
        <g id="Group_4089" data-name="Group 4089" transform="translate(20.598 9.853)">
          <path id="Path_4270" data-name="Path 4270" d="M10463.525-3460.339a18.081,18.081,0,0,0-18.061,18.061,18.081,18.081,0,0,0,18.061,18.061,18.082,18.082,0,0,0,18.062-18.061A18.082,18.082,0,0,0,10463.525-3460.339Zm0,34.163a16.122,16.122,0,0,1-16.1-16.1,16.122,16.122,0,0,1,16.1-16.1,16.12,16.12,0,0,1,16.1,16.1A16.12,16.12,0,0,1,10463.525-3426.176Z" transform="translate(-10445.465 3460.339)" fill="#1e243a"/>
        </g>
        <g id="Group_4091" data-name="Group 4091" transform="translate(9.579)">
          <path id="Path_4272" data-name="Path 4272" d="M10415.336-3516.067a12.851,12.851,0,0,1-.4-3.436c-.059-1.927-.121-3.919-1.255-5.478-1.146-1.575-3.032-2.25-4.856-2.9a12.641,12.641,0,0,1-3.112-1.419,12.455,12.455,0,0,1-2.275-2.495c-1.188-1.545-2.415-3.144-4.295-3.754-1.8-.584-3.7-.033-5.529.5a12.989,12.989,0,0,1-3.459.695,12.98,12.98,0,0,1-3.46-.695c-1.832-.533-3.729-1.085-5.528-.5-1.879.61-3.108,2.208-4.295,3.754a12.465,12.465,0,0,1-2.275,2.494,12.666,12.666,0,0,1-3.113,1.419c-1.824.651-3.71,1.326-4.855,2.9-1.134,1.559-1.2,3.551-1.255,5.478a12.853,12.853,0,0,1-.4,3.436,12.137,12.137,0,0,1-1.641,2.878c-1.111,1.617-2.259,3.288-2.259,5.3s1.147,3.686,2.261,5.3a12.19,12.19,0,0,1,1.639,2.878,12.852,12.852,0,0,1,.4,3.436c.06,1.927.121,3.919,1.255,5.478,1.146,1.575,3.031,2.25,4.855,2.9a12.684,12.684,0,0,1,3.113,1.419,12.452,12.452,0,0,1,2.275,2.494c1.187,1.546,2.416,3.144,4.295,3.754a5.342,5.342,0,0,0,1.666.25,14.2,14.2,0,0,0,3.862-.751c1.226-.357,1.339-1.362,2.413-1.362.956,0-.587-.534,2.034-.177a4.334,4.334,0,0,0,1.192.558c1.832.533,5.008,2.067,6.809,1.482,1.88-.61,3.106-2.208,4.295-3.754a12.465,12.465,0,0,1,2.275-2.494,12.659,12.659,0,0,1,3.112-1.419c1.824-.652,3.71-1.326,4.856-2.9,1.134-1.559,1.2-3.551,1.255-5.478a12.855,12.855,0,0,1,.4-3.436,12.18,12.18,0,0,1,1.641-2.878c1.11-1.617,2.259-3.289,2.259-5.3s-1.148-3.687-2.259-5.3A12.171,12.171,0,0,1,10415.336-3516.067Zm.027,12.375a13.766,13.766,0,0,0-1.891,3.383,14.383,14.383,0,0,0-.491,3.979c-.053,1.705-.1,3.316-.882,4.386-.791,1.087-2.315,1.632-3.931,2.209a14.215,14.215,0,0,0-3.607,1.68,14.083,14.083,0,0,0-2.675,2.885c-1.052,1.369-2.045,2.662-3.347,3.084-1.228.4-2.756-.047-4.377-.519a14.6,14.6,0,0,0-4.007-.772,14.6,14.6,0,0,0-4.007.772c-1.62.472-3.15.917-4.377.519-1.3-.423-2.295-1.715-3.347-3.084a14.056,14.056,0,0,0-2.675-2.885,14.23,14.23,0,0,0-3.607-1.68c-1.615-.577-3.141-1.122-3.932-2.209-.778-1.07-.828-2.681-.881-4.386a14.384,14.384,0,0,0-.492-3.979,13.731,13.731,0,0,0-1.89-3.383c-.984-1.434-1.915-2.788-1.915-4.194s.931-2.76,1.915-4.194a13.728,13.728,0,0,0,1.89-3.382,14.385,14.385,0,0,0,.492-3.98c.053-1.706.1-3.315.881-4.386.791-1.087,2.316-1.632,3.932-2.209a14.214,14.214,0,0,0,3.607-1.68,14.044,14.044,0,0,0,2.675-2.885c1.052-1.369,2.046-2.662,3.347-3.084a3.426,3.426,0,0,1,1.063-.154,12.659,12.659,0,0,1,3.313.673,14.6,14.6,0,0,0,4.007.772,14.6,14.6,0,0,0,4.007-.772c1.621-.472,3.149-.917,4.377-.519,1.3.422,2.295,1.715,3.347,3.084a14.071,14.071,0,0,0,2.675,2.885,14.2,14.2,0,0,0,3.607,1.68c1.615.577,3.14,1.123,3.931,2.209.778,1.071.829,2.681.882,4.386a14.384,14.384,0,0,0,.491,3.98,13.763,13.763,0,0,0,1.891,3.382c.984,1.434,1.914,2.788,1.914,4.194S10416.348-3505.125,10415.363-3503.691Z" transform="translate(-10361.076 3535.8)" fill="#1e243a"/>
        </g>
        <path id="Path_4316" data-name="Path 4316" d="M61.686,44.093l7.136,26.013.981,1.77-.981.844-5.666-2.614L55.4,66.193H54.108L52.765,67.3l-7.19,12.149H44.393l-.805-1.478s-.023-25.179-5.007-24.81-14.93,26.288-14.93,26.288l-1.39-.506L18.122,65.053l-1.255-.762H15.043L3.139,67.3H1.583l-.716-1.11,14.176-25.9a7.075,7.075,0,0,0,.739,4.294c1.13,1.715,1.795,1.43,3.781,2.566s2.387.225,4.088,1.487,1.23,1.3,2.687,2.947,1.428,2.327,3.144,3.1,2.152.252,3.717,0,1.259-.755,3.147-1.007a12.343,12.343,0,0,1,4.3,0c1.672.252,1.086.755,2.938,1.007s3.133.6,4.733,0a5.282,5.282,0,0,0,2.47-2.411,18.353,18.353,0,0,1,3.317-3.639c1.706-1.282,2.268-.923,3.507-1.487a9.7,9.7,0,0,0,2.175-1.3c1.143-.765,2.4-1.76,2.4-1.76Z" fill="#fff"/>
        <g id="Group_4092" data-name="Group 4092" transform="translate(0 40.538)">
          <path id="Path_4273" data-name="Path 4273" d="M10350.533-3221.156a.978.978,0,0,0-1.209-.674.978.978,0,0,0-.674,1.21l7.445,26.158a.274.274,0,0,1-.1.306.273.273,0,0,1-.319.03l-11.533-6.212a3.413,3.413,0,0,0-4.6,1.309l-6.532,11.355a.273.273,0,0,1-.287.143.276.276,0,0,1-.245-.208l-5.492-24.812a.982.982,0,0,0-.826-.7.979.979,0,0,0-.969.491l-14.024,25.1a.274.274,0,0,1-.285.146.271.271,0,0,1-.245-.206l-3.77-12.569a3.413,3.413,0,0,0-4.179-2.326l-12.647,3.409a.273.273,0,0,1-.3-.1.274.274,0,0,1-.024-.32l13.509-24.261a.979.979,0,0,0-.379-1.332.98.98,0,0,0-1.332.379l-13.51,24.262a2.245,2.245,0,0,0,.193,2.478,2.243,2.243,0,0,0,2.357.787l12.648-3.41a1.462,1.462,0,0,1,1.79,1l3.771,12.569a2.217,2.217,0,0,0,1.9,1.589,2.4,2.4,0,0,0,.262.015,2.215,2.215,0,0,0,1.947-1.145l12.873-23.059,4.85,22.554a2.244,2.244,0,0,0,1.889,1.616,2.246,2.246,0,0,0,2.225-1.111l6.532-11.355a1.463,1.463,0,0,1,1.972-.562l11.534,6.212a2.244,2.244,0,0,0,2.475-.228,2.24,2.24,0,0,0,.753-2.368Z" transform="translate(-10287.72 3225.345)" fill="#1e243a"/>
        </g>
      </g>
    </g>
    <g id="SOLUTIONS" transform="translate(10304.838 -3707.172)">
      <g id="Group_4096" data-name="Group 4096" transform="translate(100.234 108.68)">
        <g id="Group_4095" data-name="Group 4095">
          <g id="Group_4094" data-name="Group 4094">
            <path id="Path_4274" data-name="Path 4274" d="M11005.4-3084.043h-74.174a2.687,2.687,0,0,0-2.687,2.686v9.538l64.6.273,14.73,14.731.439,87.881h9.18a2.688,2.688,0,0,0,2.688-2.686V-3068.8h.033l-.1-.248Z" transform="translate(-10928.538 3084.043)" fill="#32ba7a"/>
          </g>
        </g>
      </g>
      <g id="Group_4134" data-name="Group 4134" transform="translate(86.616 95.042)">
        <g id="Group_4115" data-name="Group 4115" transform="translate(17.802 58.329)">
          <g id="Group_4099" data-name="Group 4099" transform="translate(0 9.523)">
            <g id="Group_4098" data-name="Group 4098">
              <g id="Group_4097" data-name="Group 4097">
                <path id="Path_4275" data-name="Path 4275" d="M11009.16-2785.253h-56.4a1.374,1.374,0,0,1-1.375-1.374,1.374,1.374,0,0,1,1.375-1.374h56.4a1.374,1.374,0,0,1,1.375,1.374A1.374,1.374,0,0,1,11009.16-2785.253Z" transform="translate(-10951.383 2788)" fill="#1e243a"/>
              </g>
            </g>
          </g>
          <g id="Group_4102" data-name="Group 4102">
            <g id="Group_4101" data-name="Group 4101">
              <g id="Group_4100" data-name="Group 4100">
                <path id="Path_4276" data-name="Path 4276" d="M11009.16-2837.253h-56.4a1.374,1.374,0,0,1-1.375-1.374,1.374,1.374,0,0,1,1.375-1.374h56.4a1.374,1.374,0,0,1,1.375,1.374A1.374,1.374,0,0,1,11009.16-2837.253Z" transform="translate(-10951.383 2840)" fill="#1e243a"/>
              </g>
            </g>
          </g>
          <g id="Group_4105" data-name="Group 4105" transform="translate(0 18.862)">
            <g id="Group_4104" data-name="Group 4104">
              <g id="Group_4103" data-name="Group 4103">
                <path id="Path_4277" data-name="Path 4277" d="M11009.16-2734.253h-56.4a1.374,1.374,0,0,1-1.375-1.374,1.374,1.374,0,0,1,1.375-1.374h56.4a1.374,1.374,0,0,1,1.375,1.374A1.374,1.374,0,0,1,11009.16-2734.253Z" transform="translate(-10951.383 2737)" fill="#1e243a"/>
              </g>
            </g>
          </g>
          <g id="Group_4108" data-name="Group 4108" transform="translate(0 28.385)">
            <g id="Group_4107" data-name="Group 4107">
              <g id="Group_4106" data-name="Group 4106">
                <path id="Path_4278" data-name="Path 4278" d="M11009.16-2682.253h-56.4a1.374,1.374,0,0,1-1.375-1.374,1.374,1.374,0,0,1,1.375-1.374h56.4a1.374,1.374,0,0,1,1.375,1.374A1.374,1.374,0,0,1,11009.16-2682.253Z" transform="translate(-10951.383 2685)" fill="#1e243a"/>
              </g>
            </g>
          </g>
          <g id="Group_4111" data-name="Group 4111" transform="translate(0 38.091)">
            <g id="Group_4110" data-name="Group 4110">
              <g id="Group_4109" data-name="Group 4109">
                <path id="Path_4279" data-name="Path 4279" d="M11009.16-2629.253h-56.4a1.374,1.374,0,0,1-1.375-1.374,1.374,1.374,0,0,1,1.375-1.373h56.4a1.374,1.374,0,0,1,1.375,1.373A1.374,1.374,0,0,1,11009.16-2629.253Z" transform="translate(-10951.383 2632)" fill="#1e243a"/>
              </g>
            </g>
          </g>
          <g id="Group_4114" data-name="Group 4114" transform="translate(0 47.431)">
            <g id="Group_4113" data-name="Group 4113">
              <g id="Group_4112" data-name="Group 4112">
                <path id="Path_4280" data-name="Path 4280" d="M10980.957-2578.253h-28.2a1.374,1.374,0,0,1-1.375-1.374,1.374,1.374,0,0,1,1.375-1.373h28.2a1.373,1.373,0,0,1,1.375,1.373A1.373,1.373,0,0,1,10980.957-2578.253Z" transform="translate(-10951.383 2581)" fill="#1e243a"/>
              </g>
            </g>
          </g>
        </g>
        <g id="Group_4118" data-name="Group 4118" transform="translate(17.802 46.243)">
          <g id="Group_4117" data-name="Group 4117">
            <g id="Group_4116" data-name="Group 4116">
              <path id="Path_4281" data-name="Path 4281" d="M10961.363-2903.253h-8.605a1.374,1.374,0,0,1-1.375-1.373,1.374,1.374,0,0,1,1.375-1.374h8.605a1.374,1.374,0,0,1,1.375,1.374A1.374,1.374,0,0,1,10961.363-2903.253Z" transform="translate(-10951.383 2906)" fill="#1e243a"/>
            </g>
          </g>
        </g>
        <g id="Group_4121" data-name="Group 4121" transform="translate(38.313 46.243)">
          <g id="Group_4120" data-name="Group 4120">
            <g id="Group_4119" data-name="Group 4119">
              <path id="Path_4282" data-name="Path 4282" d="M11079.773-2903.253h-15.016a1.373,1.373,0,0,1-1.375-1.373,1.373,1.373,0,0,1,1.375-1.374h15.016a1.374,1.374,0,0,1,1.373,1.374A1.373,1.373,0,0,1,11079.773-2903.253Z" transform="translate(-11063.383 2906)" fill="#1e243a"/>
            </g>
          </g>
        </g>
        <g id="Group_4124" data-name="Group 4124" transform="translate(0 24.587)">
          <g id="Group_4123" data-name="Group 4123">
            <g id="Group_4122" data-name="Group 4122">
              <path id="Path_4283" data-name="Path 4283" d="M10944.594-2906.46h-86.361a4.065,4.065,0,0,1-4.061-4.06V-3020.2a4.065,4.065,0,0,1,4.061-4.06h73.98a1.374,1.374,0,0,1,1.375,1.374v12.4a1.292,1.292,0,0,0,1.291,1.292h12.4a1.373,1.373,0,0,1,1.373,1.374v97.3A4.065,4.065,0,0,1,10944.594-2906.46Zm-86.361-115.048a1.314,1.314,0,0,0-1.312,1.313v109.675a1.314,1.314,0,0,0,1.313,1.313h86.361a1.313,1.313,0,0,0,1.311-1.313v-95.923h-11.025a4.041,4.041,0,0,1-4.037-4.039v-11.027Z" transform="translate(-10854.172 3024.255)" fill="#1e243a"/>
            </g>
          </g>
        </g>
        <g id="Group_4127" data-name="Group 4127" transform="translate(76.843 24.762)">
          <g id="Group_4126" data-name="Group 4126">
            <g id="Group_4125" data-name="Group 4125">
              <path id="Path_4284" data-name="Path 4284" d="M11289.885-3005.82a1.374,1.374,0,0,1-.973-.4l-14.73-14.73a1.376,1.376,0,0,1,0-1.942,1.374,1.374,0,0,1,1.943,0l14.73,14.73a1.372,1.372,0,0,1,0,1.942A1.373,1.373,0,0,1,11289.885-3005.82Z" transform="translate(-11273.78 3023.298)" fill="#1e243a"/>
            </g>
          </g>
        </g>
        <g id="Group_4130" data-name="Group 4130" transform="translate(12.245 12.264)">
          <g id="Group_4129" data-name="Group 4129">
            <g id="Group_4128" data-name="Group 4128">
              <path id="Path_4285" data-name="Path 4285" d="M11011.357-2973.686h-8.264a1.374,1.374,0,0,1-1.373-1.374,1.373,1.373,0,0,1,1.373-1.374h8.264a1.315,1.315,0,0,0,1.314-1.313v-96.8L10998.7-3088.8h-73.6a1.315,1.315,0,0,0-1.311,1.313v8.439a1.374,1.374,0,0,1-1.373,1.374,1.374,1.374,0,0,1-1.375-1.374v-8.439a4.064,4.064,0,0,1,4.059-4.06h74.18a1.37,1.37,0,0,1,.979.412l14.707,14.994a1.382,1.382,0,0,1,.293.45l.1.249a1.354,1.354,0,0,1,.064.818v96.874A4.064,4.064,0,0,1,11011.357-2973.686Z" transform="translate(-10921.037 3091.543)" fill="#1e243a"/>
            </g>
          </g>
        </g>
        <g id="Group_4133" data-name="Group 4133" transform="translate(24.51)">
          <g id="Group_4132" data-name="Group 4132">
            <g id="Group_4131" data-name="Group 4131">
              <path id="Path_4286" data-name="Path 4286" d="M11078.329-3040.657h-8.264a1.375,1.375,0,0,1-1.375-1.374,1.375,1.375,0,0,1,1.375-1.374h8.264a1.313,1.313,0,0,0,1.313-1.312v-96.8l-13.975-14.248h-73.6a1.313,1.313,0,0,0-1.312,1.313v8.439a1.373,1.373,0,0,1-1.373,1.373,1.372,1.372,0,0,1-1.373-1.373v-8.439a4.064,4.064,0,0,1,4.059-4.06h74.174a1.374,1.374,0,0,1,.982.412l14.705,14.995a1.389,1.389,0,0,1,.295.45l.1.248a1.371,1.371,0,0,1,.064.819v96.875A4.065,4.065,0,0,1,11078.329-3040.657Z" transform="translate(-10988.011 3158.514)" fill="#1e243a"/>
            </g>
          </g>
        </g>
      </g>
      <g id="Group_4150" data-name="Group 4150" transform="translate(215.577 82.225)">
        <g id="Group_4137" data-name="Group 4137" transform="translate(36.9)">
          <g id="Group_4136" data-name="Group 4136">
            <g id="Group_4135" data-name="Group 4135">
              <path id="Path_4287" data-name="Path 4287" d="M11761.257-3223.373a1.372,1.372,0,0,1-1.373-1.374v-2.381a1.373,1.373,0,0,1,1.373-1.374,1.374,1.374,0,0,1,1.373,1.374v2.381A1.373,1.373,0,0,1,11761.257-3223.373Z" transform="translate(-11759.884 3228.5)" fill="#1e243a"/>
            </g>
          </g>
        </g>
        <g id="Group_4140" data-name="Group 4140" transform="translate(36.9 10.988)">
          <g id="Group_4139" data-name="Group 4139">
            <g id="Group_4138" data-name="Group 4138">
              <path id="Path_4288" data-name="Path 4288" d="M11761.257-3092.135a1.372,1.372,0,0,1-1.373-1.374v-4.944a1.372,1.372,0,0,1,1.373-1.374,1.373,1.373,0,0,1,1.373,1.374v4.944A1.373,1.373,0,0,1,11761.257-3092.135Zm0-13.734a1.373,1.373,0,0,1-1.373-1.374v-4.944a1.372,1.372,0,0,1,1.373-1.374,1.373,1.373,0,0,1,1.373,1.374v4.944A1.374,1.374,0,0,1,11761.257-3105.869Zm0-13.735a1.372,1.372,0,0,1-1.373-1.373v-4.945a1.372,1.372,0,0,1,1.373-1.373,1.373,1.373,0,0,1,1.373,1.373v4.945A1.373,1.373,0,0,1,11761.257-3119.6Zm0-13.735a1.372,1.372,0,0,1-1.373-1.373v-4.945a1.373,1.373,0,0,1,1.373-1.374,1.374,1.374,0,0,1,1.373,1.374v4.945A1.373,1.373,0,0,1,11761.257-3133.34Zm0-13.734a1.372,1.372,0,0,1-1.373-1.374v-4.944a1.372,1.372,0,0,1,1.373-1.374,1.373,1.373,0,0,1,1.373,1.374v4.944A1.373,1.373,0,0,1,11761.257-3147.074Zm0-13.734a1.373,1.373,0,0,1-1.373-1.374v-4.944a1.372,1.372,0,0,1,1.373-1.374,1.373,1.373,0,0,1,1.373,1.374v4.944A1.374,1.374,0,0,1,11761.257-3160.808Z" transform="translate(-11759.884 3168.5)" fill="#1e243a"/>
            </g>
          </g>
        </g>
        <g id="Group_4143" data-name="Group 4143" transform="translate(34.612 92.664)">
          <g id="Group_4142" data-name="Group 4142">
            <g id="Group_4141" data-name="Group 4141">
              <path id="Path_4289" data-name="Path 4289" d="M11751.046-2717.464h-2.289a1.373,1.373,0,0,1-1.373-1.374,1.372,1.372,0,0,1,1.373-1.374h.916v-.916a1.373,1.373,0,0,1,1.373-1.374,1.372,1.372,0,0,1,1.371,1.374v2.289A1.372,1.372,0,0,1,11751.046-2717.464Z" transform="translate(-11747.384 2722.5)" fill="#1e243a"/>
            </g>
          </g>
        </g>
        <g id="Group_4146" data-name="Group 4146" transform="translate(10.072 94.953)">
          <g id="Group_4145" data-name="Group 4145">
            <g id="Group_4144" data-name="Group 4144">
              <path id="Path_4290" data-name="Path 4290" d="M11631.422-2707.253h-4.395a1.373,1.373,0,0,1-1.373-1.374,1.372,1.372,0,0,1,1.373-1.374h4.395a1.372,1.372,0,0,1,1.373,1.374A1.373,1.373,0,0,1,11631.422-2707.253Zm-12.27,0h-4.395a1.375,1.375,0,0,1-1.375-1.374,1.375,1.375,0,0,1,1.375-1.374h4.395a1.375,1.375,0,0,1,1.375,1.374A1.375,1.375,0,0,1,11619.152-2707.253Z" transform="translate(-11613.383 2710)" fill="#1e243a"/>
            </g>
          </g>
        </g>
        <g id="Group_4149" data-name="Group 4149" transform="translate(0 94.953)">
          <g id="Group_4148" data-name="Group 4148">
            <g id="Group_4147" data-name="Group 4147">
              <path id="Path_4291" data-name="Path 4291" d="M11561.954-2707.253h-2.2a1.373,1.373,0,0,1-1.373-1.374,1.372,1.372,0,0,1,1.373-1.374h2.2a1.373,1.373,0,0,1,1.373,1.374A1.374,1.374,0,0,1,11561.954-2707.253Z" transform="translate(-11558.384 2710)" fill="#1e243a"/>
            </g>
          </g>
        </g>
      </g>
      <g id="Group_4166" data-name="Group 4166" transform="translate(30.891 141.376)">
        <g id="Group_4153" data-name="Group 4153">
          <g id="Group_4152" data-name="Group 4152">
            <g id="Group_4151" data-name="Group 4151">
              <path id="Path_4292" data-name="Path 4292" d="M10551.255-2900.372a1.374,1.374,0,0,1-1.373-1.374v-2.381a1.373,1.373,0,0,1,1.373-1.374,1.374,1.374,0,0,1,1.375,1.374v2.381A1.374,1.374,0,0,1,10551.255-2900.372Z" transform="translate(-10549.882 2905.5)" fill="#1e243a"/>
            </g>
          </g>
        </g>
        <g id="Group_4156" data-name="Group 4156" transform="translate(0 9.889)">
          <g id="Group_4155" data-name="Group 4155">
            <g id="Group_4154" data-name="Group 4154">
              <path id="Path_4293" data-name="Path 4293" d="M10551.255-2832.637a1.374,1.374,0,0,1-1.373-1.374v-4.212a1.373,1.373,0,0,1,1.373-1.373,1.374,1.374,0,0,1,1.375,1.373v4.212A1.374,1.374,0,0,1,10551.255-2832.637Zm0-11.9a1.373,1.373,0,0,1-1.373-1.373v-4.212a1.374,1.374,0,0,1,1.373-1.374,1.374,1.374,0,0,1,1.375,1.374v4.212A1.374,1.374,0,0,1,10551.255-2844.541Z" transform="translate(-10549.882 2851.5)" fill="#1e243a"/>
            </g>
          </g>
        </g>
        <g id="Group_4159" data-name="Group 4159" transform="translate(0 33.696)">
          <g id="Group_4158" data-name="Group 4158">
            <g id="Group_4157" data-name="Group 4157">
              <path id="Path_4294" data-name="Path 4294" d="M10553.544-2716.464h-2.289a1.374,1.374,0,0,1-1.373-1.374v-2.289a1.374,1.374,0,0,1,1.373-1.374,1.374,1.374,0,0,1,1.375,1.374v.916h.914a1.374,1.374,0,0,1,1.375,1.374A1.374,1.374,0,0,1,10553.544-2716.464Z" transform="translate(-10549.882 2721.5)" fill="#1e243a"/>
            </g>
          </g>
        </g>
        <g id="Group_4162" data-name="Group 4162" transform="translate(10.896 35.985)">
          <g id="Group_4161" data-name="Group 4161">
            <g id="Group_4160" data-name="Group 4160">
              <path id="Path_4295" data-name="Path 4295" d="M10628.887-2706.253h-4.762a1.375,1.375,0,0,1-1.375-1.374,1.375,1.375,0,0,1,1.375-1.374h4.762a1.373,1.373,0,0,1,1.373,1.374A1.374,1.374,0,0,1,10628.887-2706.253Zm-13.369,0h-4.76a1.374,1.374,0,0,1-1.375-1.374,1.374,1.374,0,0,1,1.375-1.374h4.76a1.372,1.372,0,0,1,1.373,1.374A1.373,1.373,0,0,1,10615.518-2706.253Z" transform="translate(-10609.383 2709)" fill="#1e243a"/>
            </g>
          </g>
        </g>
        <g id="Group_4165" data-name="Group 4165" transform="translate(37.816 35.985)">
          <g id="Group_4164" data-name="Group 4164">
            <g id="Group_4163" data-name="Group 4163">
              <path id="Path_4296" data-name="Path 4296" d="M10760.139-2706.253h-2.381a1.374,1.374,0,0,1-1.375-1.374,1.374,1.374,0,0,1,1.375-1.374h2.381a1.373,1.373,0,0,1,1.373,1.374A1.374,1.374,0,0,1,10760.139-2706.253Z" transform="translate(-10756.383 2709)" fill="#1e243a"/>
            </g>
          </g>
        </g>
      </g>
      <g id="Group_4173" data-name="Group 4173" transform="translate(130.239 41.57)">
        <g id="Group_4169" data-name="Group 4169" transform="translate(4.12)">
          <g id="Group_4168" data-name="Group 4168">
            <g id="Group_4167" data-name="Group 4167">
              <path id="Path_4297" data-name="Path 4297" d="M11116.257-3439.512a1.375,1.375,0,0,1-1.375-1.374v-8.241a1.375,1.375,0,0,1,1.375-1.374,1.373,1.373,0,0,1,1.373,1.374v8.241A1.373,1.373,0,0,1,11116.257-3439.512Z" transform="translate(-11114.882 3450.5)" fill="#1e243a"/>
            </g>
          </g>
        </g>
        <g id="Group_4172" data-name="Group 4172" transform="translate(0 4.12)">
          <g id="Group_4171" data-name="Group 4171">
            <g id="Group_4170" data-name="Group 4170">
              <path id="Path_4298" data-name="Path 4298" d="M11102-3425.253h-8.24a1.373,1.373,0,0,1-1.373-1.374,1.373,1.373,0,0,1,1.373-1.373h8.24a1.374,1.374,0,0,1,1.375,1.373A1.374,1.374,0,0,1,11102-3425.253Z" transform="translate(-11092.383 3428)" fill="#1e243a"/>
            </g>
          </g>
        </g>
      </g>
      <g id="Group_4180" data-name="Group 4180" transform="translate(59.917 197.597)">
        <g id="Group_4176" data-name="Group 4176" transform="translate(4.12)">
          <g id="Group_4175" data-name="Group 4175">
            <g id="Group_4174" data-name="Group 4174">
              <path id="Path_4299" data-name="Path 4299" d="M10732.256-2587.512a1.373,1.373,0,0,1-1.373-1.373v-8.241a1.374,1.374,0,0,1,1.373-1.374,1.372,1.372,0,0,1,1.373,1.374v8.241A1.372,1.372,0,0,1,10732.256-2587.512Z" transform="translate(-10730.883 2598.5)" fill="#1e243a"/>
            </g>
          </g>
        </g>
        <g id="Group_4179" data-name="Group 4179" transform="translate(0 4.12)">
          <g id="Group_4178" data-name="Group 4178">
            <g id="Group_4177" data-name="Group 4177">
              <path id="Path_4300" data-name="Path 4300" d="M10718-2573.253h-8.24a1.373,1.373,0,0,1-1.373-1.374,1.373,1.373,0,0,1,1.373-1.373h8.24a1.373,1.373,0,0,1,1.375,1.373A1.373,1.373,0,0,1,10718-2573.253Z" transform="translate(-10708.383 2576)" fill="#1e243a"/>
            </g>
          </g>
        </g>
      </g>
      <g id="Group_4187" data-name="Group 4187" transform="translate(198.73 0)">
        <g id="Group_4183" data-name="Group 4183" transform="translate(4.12)">
          <g id="Group_4182" data-name="Group 4182">
            <g id="Group_4181" data-name="Group 4181">
              <path id="Path_4301" data-name="Path 4301" d="M11490.255-3666.513a1.373,1.373,0,0,1-1.373-1.374v-8.241a1.374,1.374,0,0,1,1.373-1.374,1.374,1.374,0,0,1,1.375,1.374v8.241A1.374,1.374,0,0,1,11490.255-3666.513Z" transform="translate(-11488.882 3677.5)" fill="#1e243a"/>
            </g>
          </g>
        </g>
        <g id="Group_4186" data-name="Group 4186" transform="translate(0 4.12)">
          <g id="Group_4185" data-name="Group 4185">
            <g id="Group_4184" data-name="Group 4184">
              <path id="Path_4302" data-name="Path 4302" d="M11476-3652.253h-8.24a1.374,1.374,0,0,1-1.375-1.374,1.374,1.374,0,0,1,1.375-1.374h8.24a1.373,1.373,0,0,1,1.373,1.374A1.374,1.374,0,0,1,11476-3652.253Z" transform="translate(-11466.383 3655)" fill="#1e243a"/>
            </g>
          </g>
        </g>
      </g>
      <g id="Group_4194" data-name="Group 4194" transform="translate(229.495 115.738)">
        <g id="Group_4190" data-name="Group 4190" transform="translate(4.12)">
          <g id="Group_4189" data-name="Group 4189">
            <g id="Group_4188" data-name="Group 4188">
              <path id="Path_4303" data-name="Path 4303" d="M11658.256-3034.512a1.374,1.374,0,0,1-1.373-1.374v-8.241a1.373,1.373,0,0,1,1.373-1.374,1.372,1.372,0,0,1,1.373,1.374v8.241A1.373,1.373,0,0,1,11658.256-3034.512Z" transform="translate(-11656.883 3045.5)" fill="#1e243a"/>
            </g>
          </g>
        </g>
        <g id="Group_4193" data-name="Group 4193" transform="translate(0 4.12)">
          <g id="Group_4192" data-name="Group 4192">
            <g id="Group_4191" data-name="Group 4191">
              <path id="Path_4304" data-name="Path 4304" d="M11644-3020.253h-8.24a1.373,1.373,0,0,1-1.373-1.374,1.373,1.373,0,0,1,1.373-1.373h8.24a1.374,1.374,0,0,1,1.375,1.373A1.374,1.374,0,0,1,11644-3020.253Z" transform="translate(-11634.384 3023)" fill="#1e243a"/>
            </g>
          </g>
        </g>
      </g>
      <g id="Group_4201" data-name="Group 4201" transform="translate(225.283 210.416)">
        <g id="Group_4197" data-name="Group 4197" transform="translate(4.12)">
          <g id="Group_4196" data-name="Group 4196">
            <g id="Group_4195" data-name="Group 4195">
              <path id="Path_4305" data-name="Path 4305" d="M11635.254-2517.512a1.373,1.373,0,0,1-1.371-1.373v-8.241a1.373,1.373,0,0,1,1.371-1.373,1.374,1.374,0,0,1,1.375,1.373v8.241A1.374,1.374,0,0,1,11635.254-2517.512Z" transform="translate(-11633.883 2528.5)" fill="#1e243a"/>
            </g>
          </g>
        </g>
        <g id="Group_4200" data-name="Group 4200" transform="translate(0 4.12)">
          <g id="Group_4199" data-name="Group 4199">
            <g id="Group_4198" data-name="Group 4198">
              <path id="Path_4306" data-name="Path 4306" d="M11621-2503.253h-8.24a1.373,1.373,0,0,1-1.373-1.374,1.373,1.373,0,0,1,1.373-1.373h8.24a1.374,1.374,0,0,1,1.375,1.373A1.374,1.374,0,0,1,11621-2503.253Z" transform="translate(-11611.383 2506)" fill="#1e243a"/>
            </g>
          </g>
        </g>
      </g>
      <g id="Group_4208" data-name="Group 4208" transform="translate(279.307 134.6)">
        <g id="Group_4204" data-name="Group 4204" transform="translate(4.12)">
          <g id="Group_4203" data-name="Group 4203">
            <g id="Group_4202" data-name="Group 4202">
              <path id="Path_4307" data-name="Path 4307" d="M11930.256-2931.512a1.374,1.374,0,0,1-1.373-1.374v-8.241a1.373,1.373,0,0,1,1.373-1.374,1.372,1.372,0,0,1,1.373,1.374v8.241A1.373,1.373,0,0,1,11930.256-2931.512Z" transform="translate(-11928.883 2942.5)" fill="#1e243a"/>
            </g>
          </g>
        </g>
        <g id="Group_4207" data-name="Group 4207" transform="translate(0 4.12)">
          <g id="Group_4206" data-name="Group 4206">
            <g id="Group_4205" data-name="Group 4205">
              <path id="Path_4308" data-name="Path 4308" d="M11916-2917.253h-8.24a1.372,1.372,0,0,1-1.371-1.374,1.372,1.372,0,0,1,1.371-1.373h8.24a1.373,1.373,0,0,1,1.375,1.373A1.373,1.373,0,0,1,11916-2917.253Z" transform="translate(-11906.385 2920)" fill="#1e243a"/>
            </g>
          </g>
        </g>
      </g>
      <g id="Group_4211" data-name="Group 4211" transform="translate(83.141 3.67)">
        <g id="Group_4210" data-name="Group 4210">
          <g id="Group_4209" data-name="Group 4209">
            <path id="Path_4309" data-name="Path 4309" d="M10843.734-3638.977a1.813,1.813,0,0,1,1.785-1.857h0a1.807,1.807,0,0,1,1.875,1.757h0a1.79,1.79,0,0,1-1.785,1.845h-.047A1.794,1.794,0,0,1,10843.734-3638.977Zm-5.426-1.013a1.834,1.834,0,0,1-.047-2.59h0a1.832,1.832,0,0,1,2.59-.047h0a1.832,1.832,0,0,1,.047,2.589h0a1.822,1.822,0,0,1-1.318.561h0A1.832,1.832,0,0,1,10838.309-3639.989Zm11.861-.28a1.829,1.829,0,0,1-.082-2.589h0a1.834,1.834,0,0,1,2.59-.081h0a1.832,1.832,0,0,1,.08,2.589h0a1.827,1.827,0,0,1-1.334.577h0A1.821,1.821,0,0,1,10850.17-3640.27Zm-14.971-6.868a1.851,1.851,0,0,1,1.811-1.873h0a1.856,1.856,0,0,1,1.854,1.839h0a1.849,1.849,0,0,1-1.809,1.883h-.023A1.867,1.867,0,0,1,10835.2-3647.138Zm16.645-.411a1.831,1.831,0,0,1,1.762-1.9h0a1.831,1.831,0,0,1,1.9,1.762h0a1.83,1.83,0,0,1-1.762,1.9h0c-.023,0-.047,0-.07,0h0A1.832,1.832,0,0,1,10851.844-3647.549Zm-13.7-4.3a1.83,1.83,0,0,1-.016-2.589h0a1.829,1.829,0,0,1,2.588-.016h0a1.832,1.832,0,0,1,.018,2.591h0a1.832,1.832,0,0,1-1.3.544h0A1.813,1.813,0,0,1,10838.146-3651.851Zm11.594-.242h0a1.829,1.829,0,0,1-.111-2.587h0a1.831,1.831,0,0,1,2.588-.112h0a1.831,1.831,0,0,1,.111,2.586h0a1.823,1.823,0,0,1-1.35.6h0A1.826,1.826,0,0,1,10849.74-3652.093Zm-6.215-3.536a1.831,1.831,0,0,1,1.832-1.831h0a1.832,1.832,0,0,1,1.83,1.831h0a1.83,1.83,0,0,1-1.83,1.832h0A1.83,1.83,0,0,1,10843.525-3655.629Z" transform="translate(-10835.199 3657.46)" fill="#1e243a"/>
          </g>
        </g>
      </g>
      <g id="Group_4214" data-name="Group 4214" transform="translate(190.089 54.397)">
        <g id="Group_4213" data-name="Group 4213">
          <g id="Group_4212" data-name="Group 4212">
            <path id="Path_4310" data-name="Path 4310" d="M11427.733-3361.978a1.81,1.81,0,0,1,1.785-1.854h0a1.806,1.806,0,0,1,1.875,1.755h0a1.79,1.79,0,0,1-1.787,1.845h-.045A1.793,1.793,0,0,1,11427.733-3361.978Zm-5.422-1h0a1.838,1.838,0,0,1-.047-2.595h0a1.829,1.829,0,0,1,2.588-.05h0a1.828,1.828,0,0,1,.049,2.588h0a1.831,1.831,0,0,1-1.318.565h0A1.707,1.707,0,0,1,11422.312-3362.979Zm11.855-.291a1.834,1.834,0,0,1-.08-2.59h0a1.835,1.835,0,0,1,2.59-.081h0a1.833,1.833,0,0,1,.08,2.59h0a1.833,1.833,0,0,1-1.336.577h0A1.834,1.834,0,0,1,11434.167-3363.27Zm-14.969-6.868a1.852,1.852,0,0,1,1.811-1.874h0a1.855,1.855,0,0,1,1.852,1.839h0a1.846,1.846,0,0,1-1.809,1.883h-.021A1.867,1.867,0,0,1,11419.2-3370.138Zm16.646-.438a1.815,1.815,0,0,1,1.76-1.884h0a1.816,1.816,0,0,1,1.9,1.742h0a1.79,1.79,0,0,1-1.762,1.879h-.07A1.8,1.8,0,0,1,11435.845-3370.576Zm-13.7-4.275a1.833,1.833,0,0,1-.018-2.589h0a1.832,1.832,0,0,1,2.59-.017h0a1.834,1.834,0,0,1,.018,2.592h0a1.832,1.832,0,0,1-1.3.543h0A1.815,1.815,0,0,1,11422.146-3374.851Zm11.594-.242a1.829,1.829,0,0,1-.111-2.588h0a1.832,1.832,0,0,1,2.588-.111h0a1.83,1.83,0,0,1,.109,2.587h0a1.821,1.821,0,0,1-1.348.593h0A1.826,1.826,0,0,1,11433.739-3375.093Zm-6.215-3.537a1.83,1.83,0,0,1,1.83-1.831h0a1.832,1.832,0,0,1,1.832,1.831h0a1.831,1.831,0,0,1-1.832,1.832h0A1.829,1.829,0,0,1,11427.524-3378.629Z" transform="translate(-11419.198 3380.46)" fill="#1e243a"/>
          </g>
        </g>
      </g>
      <g id="Group_4217" data-name="Group 4217" transform="translate(46.881 140.834)">
        <g id="Group_4216" data-name="Group 4216">
          <g id="Group_4215" data-name="Group 4215">
            <path id="Path_4311" data-name="Path 4311" d="M10645.733-2889.977a1.812,1.812,0,0,1,1.785-1.855h0a1.8,1.8,0,0,1,1.875,1.755h0a1.789,1.789,0,0,1-1.785,1.845h-.047A1.8,1.8,0,0,1,10645.733-2889.977Zm-5.424-1.013h0a1.832,1.832,0,0,1-.049-2.59h0a1.832,1.832,0,0,1,2.59-.047h0a1.83,1.83,0,0,1,.047,2.589h0a1.825,1.825,0,0,1-1.318.561h0A1.821,1.821,0,0,1,10640.31-2890.989Zm11.857-.28a1.834,1.834,0,0,1-.08-2.589h0a1.834,1.834,0,0,1,2.59-.081h0a1.834,1.834,0,0,1,.08,2.589h0a1.831,1.831,0,0,1-1.334.577h0A1.83,1.83,0,0,1,10652.167-2891.27Zm-14.969-6.868a1.851,1.851,0,0,1,1.809-1.873h0a1.855,1.855,0,0,1,1.854,1.839h0a1.848,1.848,0,0,1-1.807,1.883h-.023A1.869,1.869,0,0,1,10637.2-2898.138Zm16.646-.438a1.816,1.816,0,0,1,1.762-1.884h0a1.814,1.814,0,0,1,1.9,1.742h0a1.792,1.792,0,0,1-1.762,1.879h-.07A1.805,1.805,0,0,1,10653.845-2898.576Zm-13.7-4.275a1.834,1.834,0,0,1-.016-2.59h0a1.831,1.831,0,0,1,2.59-.016h0a1.835,1.835,0,0,1,.018,2.591h0a1.832,1.832,0,0,1-1.3.544h0A1.826,1.826,0,0,1,10640.144-2902.851Zm11.6-.242a1.831,1.831,0,0,1-.111-2.588h0a1.829,1.829,0,0,1,2.586-.112h0a1.829,1.829,0,0,1,.113,2.588h0a1.825,1.825,0,0,1-1.35.593h0A1.826,1.826,0,0,1,10651.739-2903.092Zm-6.2-3.536a1.822,1.822,0,0,1,1.822-1.832h0a1.845,1.845,0,0,1,1.846,1.832h0a1.881,1.881,0,0,1-1.816,1.831h0v0h0S10645.544-2905.616,10645.544-2906.628Z" transform="translate(-10637.198 2908.46)" fill="#1e243a"/>
          </g>
        </g>
      </g>
      <g id="Group_4220" data-name="Group 4220" transform="translate(0 213.72)">
        <g id="Group_4219" data-name="Group 4219">
          <g id="Group_4218" data-name="Group 4218">
            <path id="Path_4312" data-name="Path 4312" d="M10389.732-2491.977a1.813,1.813,0,0,1,1.787-1.855h0a1.805,1.805,0,0,1,1.875,1.755h0a1.79,1.79,0,0,1-1.785,1.845h-.047A1.8,1.8,0,0,1,10389.732-2491.977Zm-5.422-1.013h0a1.832,1.832,0,0,1-.049-2.589h0a1.833,1.833,0,0,1,2.59-.047h0a1.831,1.831,0,0,1,.047,2.589h0a1.82,1.82,0,0,1-1.318.561h0A1.819,1.819,0,0,1,10384.311-2492.99Zm11.857-.28a1.832,1.832,0,0,1-.08-2.589h0a1.834,1.834,0,0,1,2.59-.081h0a1.833,1.833,0,0,1,.08,2.589h0a1.829,1.829,0,0,1-1.334.577h0A1.828,1.828,0,0,1,10396.168-2493.27Zm-14.969-6.868a1.849,1.849,0,0,1,1.811-1.873h0a1.857,1.857,0,0,1,1.854,1.839h0a1.849,1.849,0,0,1-1.811,1.882h-.021A1.869,1.869,0,0,1,10381.2-2500.138Zm16.645-.411a1.831,1.831,0,0,1,1.762-1.9h0a1.83,1.83,0,0,1,1.9,1.762h0a1.831,1.831,0,0,1-1.764,1.9h0c-.023,0-.045,0-.068,0h0A1.83,1.83,0,0,1,10397.844-2500.549Zm-13.7-4.3a1.83,1.83,0,0,1-.018-2.589h0a1.831,1.831,0,0,1,2.59-.016h0a1.832,1.832,0,0,1,.016,2.591h0a1.825,1.825,0,0,1-1.3.544h0A1.81,1.81,0,0,1,10384.146-2504.851Zm11.594-.242a1.831,1.831,0,0,1-.113-2.587h0a1.831,1.831,0,0,1,2.586-.112h0a1.831,1.831,0,0,1,.115,2.588h0a1.831,1.831,0,0,1-1.35.593h0A1.826,1.826,0,0,1,10395.74-2505.093Zm-6.215-3.536a1.829,1.829,0,0,1,1.83-1.831h0a1.83,1.83,0,0,1,1.83,1.831h0a1.829,1.829,0,0,1-1.83,1.832h0A1.828,1.828,0,0,1,10389.525-2508.629Z" transform="translate(-10381.199 2510.46)" fill="#1e243a"/>
          </g>
        </g>
      </g>
      <g id="Group_4223" data-name="Group 4223" transform="translate(266.271 213.72)">
        <g id="Group_4222" data-name="Group 4222">
          <g id="Group_4221" data-name="Group 4221">
            <path id="Path_4313" data-name="Path 4313" d="M11843.733-2491.977a1.812,1.812,0,0,1,1.785-1.855h0a1.805,1.805,0,0,1,1.875,1.755h0a1.79,1.79,0,0,1-1.785,1.845h-.047A1.8,1.8,0,0,1,11843.733-2491.977Zm-5.424-1.013a1.832,1.832,0,0,1-.049-2.589h0a1.829,1.829,0,0,1,2.59-.047h0a1.827,1.827,0,0,1,.047,2.589h0a1.828,1.828,0,0,1-1.318.561h0A1.819,1.819,0,0,1,11838.31-2492.99Zm11.857-.28a1.833,1.833,0,0,1-.08-2.589h0a1.834,1.834,0,0,1,2.59-.081h0a1.832,1.832,0,0,1,.08,2.589h0a1.826,1.826,0,0,1-1.334.577h0A1.831,1.831,0,0,1,11850.167-2493.27Zm-14.969-6.868a1.851,1.851,0,0,1,1.809-1.873h0a1.855,1.855,0,0,1,1.854,1.839h0a1.847,1.847,0,0,1-1.807,1.882h-.023A1.867,1.867,0,0,1,11835.2-2500.138Zm16.646-.438h0a1.817,1.817,0,0,1,1.762-1.884h0a1.816,1.816,0,0,1,1.9,1.742h0a1.791,1.791,0,0,1-1.762,1.879h-.068A1.806,1.806,0,0,1,11851.845-2500.576Zm-13.7-4.275a1.831,1.831,0,0,1-.016-2.589h0a1.829,1.829,0,0,1,2.588-.016h0a1.834,1.834,0,0,1,.018,2.591h0a1.832,1.832,0,0,1-1.3.544h0A1.816,1.816,0,0,1,11838.146-2504.851Zm11.594-.242a1.829,1.829,0,0,1-.111-2.587h0a1.831,1.831,0,0,1,2.588-.112h0a1.831,1.831,0,0,1,.111,2.588h0a1.824,1.824,0,0,1-1.35.593h0A1.826,1.826,0,0,1,11849.739-2505.093Zm-6.2-3.534a1.8,1.8,0,0,1,1.852-1.833v0a1.878,1.878,0,0,1,1.813,1.831h0a1.831,1.831,0,0,1-1.832,1.83h0A1.831,1.831,0,0,1,11843.544-2508.627Z" transform="translate(-11835.198 2510.46)" fill="#1e243a"/>
          </g>
        </g>
      </g>
      <g id="Group_4226" data-name="Group 4226" transform="translate(26.709 60.073)">
        <g id="Group_4225" data-name="Group 4225" transform="translate(0 0)">
          <g id="Group_4224" data-name="Group 4224">
            <path id="Path_4314" data-name="Path 4314" d="M10528.76-3400.224l-2.8-5.663-2.795,5.663-6.249.908,4.521,4.408-1.067,6.225,5.59-2.939,5.592,2.939-1.069-6.225,4.522-4.408Z" transform="translate(-10516.92 3405.887)" fill="#0a70f1"/>
          </g>
        </g>
      </g>
      <g id="Group_4229" data-name="Group 4229" transform="translate(26.362 59.726)">
        <g id="Group_4228" data-name="Group 4228" transform="translate(0 0)">
          <g id="Group_4227" data-name="Group 4227">
            <path id="Path_4315" data-name="Path 4315" d="M10518.032-3390.676a.351.351,0,0,1-.2-.067.348.348,0,0,1-.138-.34l1.037-6.045-4.392-4.281a.347.347,0,0,1-.089-.356.349.349,0,0,1,.28-.237l6.07-.882,2.713-5.5a.348.348,0,0,1,.313-.193.345.345,0,0,1,.311.193l2.715,5.5,6.069.882a.351.351,0,0,1,.281.237.354.354,0,0,1-.089.356l-4.392,4.281,1.036,6.045a.344.344,0,0,1-.138.34.347.347,0,0,1-.365.027l-5.429-2.854-5.429,2.854A.349.349,0,0,1,10518.032-3390.676Zm5.591-3.634a.342.342,0,0,1,.161.04l4.967,2.611-.947-5.531a.347.347,0,0,1,.1-.308l4.018-3.917-5.554-.806a.353.353,0,0,1-.262-.19l-2.482-5.033-2.483,5.033a.351.351,0,0,1-.262.19l-5.554.806,4.019,3.917a.347.347,0,0,1,.1.308l-.949,5.531,4.968-2.611A.34.34,0,0,1,10523.623-3394.31Z" transform="translate(-10514.23 3408.576)" fill="#1e243a" stroke="#1e243a" stroke-width="1"/>
          </g>
        </g>
      </g>
    </g>
  </g>
</svg>
